<?xml version="1.0" encoding="UTF-8"?>
<svg version="1.1" xmlns="http://www.w3.org/2000/svg" width="1024" height="1024">
<path d="M0 0 C0.83160645 0.01933594 1.66321289 0.03867188 2.52001953 0.05859375 C15.57363264 0.3869258 28.39598708 1.64630501 41.34375 3.30078125 C47.55145179 4.08910991 53.7518346 4.6397678 60 5 C60 5.66 60 6.32 60 7 C60.54930176 7.03230713 61.09860352 7.06461426 61.66455078 7.09790039 C69.59832863 7.71543719 77.17456759 9.49584468 84.875 11.4375 C85.56920044 11.61129181 86.26340088 11.78508362 86.9786377 11.96414185 C108.78614358 17.46827571 129.74378934 25.22409807 150 35 C151.04172363 35.49814209 151.04172363 35.49814209 152.10449219 36.00634766 C156.78142093 38.25319517 161.40238046 40.59542022 166 43 C166.67643555 43.35078613 167.35287109 43.70157227 168.04980469 44.06298828 C179.2654255 49.92652945 189.76250194 56.67209914 200.20507812 63.81835938 C201.18927734 64.48931641 202.17347656 65.16027344 203.1875 65.8515625 C204.06792969 66.45822754 204.94835937 67.06489258 205.85546875 67.68994141 C207.86561948 69.17376951 207.86561948 69.17376951 210 69 C211.17241639 70.15319645 212.33952778 71.31229126 213.47900391 72.49804688 C216.3403113 75.32353051 219.54488136 77.74770243 222.6875 80.25 C228.9771669 85.31480341 235.08604661 90.49722384 241 96 C241.59232422 96.54865723 242.18464844 97.09731445 242.79492188 97.66259766 C247.21405669 101.75653846 251.62916519 105.85446595 256 110 C256.51481934 110.48275391 257.02963867 110.96550781 257.56005859 111.46289062 C258.74633321 112.60204783 259.87941232 113.79616867 261 115 C261 115.66 261 116.32 261 117 C261.66 117 262.32 117 263 117 C264.33984375 118.29296875 264.33984375 118.29296875 265.9375 120.1875 C266.55238281 120.91195312 267.16726563 121.63640625 267.80078125 122.3828125 C268.52652344 123.24648438 269.25226562 124.11015625 270 125 C270.90921921 126.06069977 271.81943217 127.12054826 272.73046875 128.1796875 C280.95716304 137.77889234 280.95716304 137.77889234 284.0625 142.3125 C285.0215625 143.6428125 285.0215625 143.6428125 286 145 C286.66 145 287.32 145 288 145 C288.08378906 145.54140625 288.16757812 146.0828125 288.25390625 146.640625 C289.25951676 149.82067082 290.98520202 152.04629032 292.9375 154.75 C297.15625286 160.65487335 301.00675632 166.73774167 304.72436523 172.96972656 C305.76446875 174.67908304 306.87590427 176.34466811 308 178 C308.66 178 309.32 178 310 178 C310.10707275 178.71051514 310.21414551 179.42103027 310.32446289 180.15307617 C311.07444247 183.31372376 312.25789932 185.69822756 313.80859375 188.55078125 C314.38593262 189.62948486 314.96327148 190.70818848 315.55810547 191.81958008 C316.17830566 192.97224365 316.79850586 194.12490723 317.4375 195.3125 C324.10965268 207.90355275 329.83753501 220.71100819 335 234 C335.35255859 234.88896973 335.70511719 235.77793945 336.06835938 236.69384766 C348.05443796 267.06944925 355.24985301 299.47791287 358 332 C358.16628906 333.79630859 358.16628906 333.79630859 358.3359375 335.62890625 C361.56905524 376.82931203 357.84235656 419.14417903 347 459 C346.74379883 459.94617188 346.48759766 460.89234375 346.22363281 461.8671875 C336.28292411 497.88822479 320.63220429 533.42214731 299 564 C298.0773832 565.33282014 297.15557123 566.66619761 296.234375 568 C290.18818358 576.70828383 283.89901977 585.16490026 277.25634766 593.42626953 C276.02464013 594.9691352 274.81478813 596.529368 273.60546875 598.08984375 C272.89003906 599.00894531 272.17460938 599.92804687 271.4375 600.875 C270.81746094 601.67679688 270.19742188 602.47859375 269.55859375 603.3046875 C269.04425781 603.86414063 268.52992188 604.42359375 268 605 C267.34 605 266.68 605 266 605 C265.73574219 605.58007812 265.47148438 606.16015625 265.19921875 606.7578125 C262.00365154 612.73258637 256.78458779 617.32021714 251.61328125 621.57421875 C249.7524457 623.14514719 249.7524457 623.14514719 247.5625 625.9375 C244.36733408 629.75611293 240.78782064 632.78426673 237 636 C236.03449219 636.85335937 235.06898438 637.70671875 234.07421875 638.5859375 C212.78769914 657.33390452 189.12762258 673.81603715 164 687 C163.3714209 687.33016113 162.7428418 687.66032227 162.09521484 688.00048828 C157.4396664 690.42439303 152.73606175 692.73792009 148 695 C147.25830566 695.35562012 146.51661133 695.71124023 145.75244141 696.07763672 C118.76050071 708.90801357 90.31974506 717.82894428 60.97119141 723.37353516 C58.08799683 723.85055869 58.08799683 723.85055869 56 725 C54.25936813 725.19623334 52.51303595 725.34293476 50.765625 725.46484375 C46.24145344 725.80825606 41.74187642 726.23573622 37.234375 726.75390625 C5.83526808 730.22722144 -25.2807801 729.94278722 -56.65429688 726.36376953 C-61.76135549 725.80849243 -66.87837411 725.39501276 -72 725 C-72 724.34 -72 723.68 -72 723 C-72.65556885 722.9589917 -73.3111377 722.9179834 -73.98657227 722.87573242 C-81.17586423 722.33598055 -87.94919776 721.05227369 -94.9375 719.3125 C-96.01781494 719.04848389 -97.09812988 718.78446777 -98.21118164 718.51245117 C-107.46956081 716.21198325 -116.61147021 713.58101961 -125.70654297 710.70556641 C-127.3810597 710.19041276 -129.06369943 709.70145414 -130.75048828 709.22802734 C-131.65911621 708.97102051 -132.56774414 708.71401367 -133.50390625 708.44921875 C-134.33865479 708.21936279 -135.17340332 707.98950684 -136.03344727 707.75268555 C-138 707 -138 707 -139 705 C-140.65 705 -142.3 705 -144 705 C-144 704.34 -144 703.68 -144 703 C-145.41601714 702.51891725 -146.83284437 702.04021859 -148.25 701.5625 C-149.03890625 701.29566406 -149.8278125 701.02882813 -150.640625 700.75390625 C-155.27630031 699.1372292 -155.27630031 699.1372292 -160 700 C-160 699.01 -160 698.02 -160 697 C-160.95777344 696.52691406 -161.91554688 696.05382812 -162.90234375 695.56640625 C-176.99773442 688.57957493 -190.97031336 681.63250275 -204.046875 672.84765625 C-206.6653626 671.2093697 -209.09758447 670.02659512 -212 669 C-212 668.34 -212 667.68 -212 667 C-212.55558594 666.74476563 -213.11117187 666.48953125 -213.68359375 666.2265625 C-216.34056103 664.8196692 -218.64471107 663.16252583 -221.0625 661.375 C-223.99224226 659.21480337 -226.92048714 657.05677951 -229.8828125 654.94140625 C-234.68282639 651.51186986 -239.30067614 648.02383287 -243.6796875 644.0703125 C-245.49659574 642.44916542 -247.33122536 640.8701745 -249.1953125 639.3046875 C-256.7430278 632.93274695 -263.93203717 626.27837217 -270.9375 619.3125 C-272.13705322 618.12660278 -272.13705322 618.12660278 -273.36083984 616.91674805 C-274.09641113 616.177229 -274.83198242 615.43770996 -275.58984375 614.67578125 C-276.24847412 614.01489502 -276.90710449 613.35400879 -277.58569336 612.6730957 C-279 611 -279 611 -279 609 C-279.66 609 -280.32 609 -281 609 C-282.45659977 607.38617052 -283.84048951 605.70636784 -285.1875 604 C-287.84526049 600.64870831 -290.53445469 597.37835698 -293.37890625 594.18359375 C-297.07811195 589.97942977 -300.44318747 585.57914494 -303.75 581.0625 C-304.35634277 580.23476074 -304.96268555 579.40702148 -305.58740234 578.55419922 C-354 511.8962231 -354 511.8962231 -354 485 C-354.99 484.67 -355.98 484.34 -357 484 C-357.33 483.01 -357.66 482.02 -358 481 C-357.34 481 -356.68 481 -356 481 C-356.37511719 479.86046875 -356.75023437 478.7209375 -357.13671875 477.546875 C-370.55065933 436.27355078 -370.55065933 436.27355078 -370 421 C-370.66 420.67 -371.32 420.34 -372 420 C-372.29411139 417.53492207 -372.46915883 415.16217927 -372.5625 412.6875 C-372.62466047 411.33716301 -372.68851271 409.98690303 -372.75390625 408.63671875 C-372.78624359 407.94381744 -372.81858093 407.25091614 -372.85189819 406.53701782 C-373.00979238 403.83225431 -373.25214165 401.14274194 -373.50048828 398.44482422 C-374.01131999 392.37221234 -374.19248811 386.33813259 -374.23828125 380.24609375 C-374.2480751 379.15905151 -374.25786896 378.07200928 -374.26795959 376.95202637 C-374.69232787 317.57743779 -366.81288889 257.04161338 -338.06738281 204.00097656 C-336.85858432 201.73489411 -335.70576999 199.44436113 -334.5546875 197.1484375 C-325.05743964 178.3547367 -313.82651251 160.69422831 -301 144 C-300.3179248 143.1037793 -300.3179248 143.1037793 -299.62207031 142.18945312 C-293.44913813 134.09422926 -286.97711415 126.41602155 -280 119 C-280.33 118.34 -280.66 117.68 -281 117 C-280.25596924 116.58266602 -279.51193848 116.16533203 -278.74536133 115.73535156 C-276.13331071 114.08426612 -274.22181027 112.43890508 -272.07421875 110.234375 C-271.35943359 109.50863281 -270.64464844 108.78289062 -269.90820312 108.03515625 C-268.80895508 106.90400391 -268.80895508 106.90400391 -267.6875 105.75 C-262.31374418 100.24658251 -256.85481359 94.98980166 -251 90 C-249.95513055 89.0879249 -248.91081807 88.17521116 -247.8671875 87.26171875 C-240.76683746 81.15319306 -233.44904001 75.58376955 -225.76171875 70.23828125 C-224.00268847 69.00188968 -222.26481428 67.74055224 -220.53125 66.46875 C-212.30557223 60.4488017 -203.83850151 55.0729988 -195 50 C-194.31454102 49.60312988 -193.62908203 49.20625977 -192.92285156 48.79736328 C-134.33718019 15 -134.33718019 15 -112 15 C-111.67 14.34 -111.34 13.68 -111 13 C-108.86523438 12.45068359 -108.86523438 12.45068359 -106.09375 12.0234375 C-102.31205909 11.3984351 -98.5779075 10.71739146 -94.84375 9.8515625 C-63.73457002 2.68168703 -31.94648005 -0.92342642 0 0 Z M-356 482 C-355 484 -355 484 -355 484 Z " fill="#AAB7FE" transform="translate(520,139)"/>
<path d="M0 0 C7.64523854 5.40791957 12.89379751 13.2383958 14.5234375 22.52734375 C15.39459707 32.75950884 13.79260038 41.64005052 7.1953125 49.70703125 C2.49828307 54.82108666 -0.72826061 57.27790979 -7.4765625 59.52734375 C-7.4765625 66.78734375 -7.4765625 74.04734375 -7.4765625 81.52734375 C-4.67630585 81.5184613 -1.87604919 81.50957886 1.00906372 81.50042725 C26.73325374 81.42070243 52.45742924 81.36105262 78.18171597 81.32308243 C81.55848146 81.31808006 84.93524666 81.31290273 88.31201172 81.30761719 C89.32032161 81.30604332 89.32032161 81.30604332 90.34900139 81.30443767 C101.20981973 81.28706861 112.07055272 81.25555041 122.93132056 81.21873257 C134.08911903 81.18122541 145.24688849 81.1593864 156.4047507 81.15098977 C162.66623156 81.14578737 168.92751933 81.13360957 175.18893814 81.10442352 C181.09043146 81.07713977 186.99165334 81.06892493 192.89320374 81.07491302 C195.05139011 81.07381857 197.20958618 81.06594249 199.36771774 81.05052185 C217.51198297 80.92730624 234.33157228 82.65090789 248.2734375 95.65234375 C262.0585231 110.42560753 263.03960979 126.35249923 262.5234375 145.52734375 C263.71195313 145.49382812 264.90046875 145.4603125 266.125 145.42578125 C279.77985965 145.4438035 291.5895746 153.06897525 301.203125 162.125 C311.81190998 173.10884304 316.80643081 187.14051606 316.84033203 202.30566406 C316.53606042 217.98504293 310.71860504 231.85040491 299.9453125 243.23828125 C290.89868205 251.78880615 279.10727264 258.60702836 266.38500977 258.54589844 C264.47353149 258.53671387 264.47353149 258.53671387 262.5234375 258.52734375 C262.54438477 259.61039795 262.56533203 260.69345215 262.58691406 261.80932617 C262.66018737 265.88894031 262.70554919 269.96849837 262.74316406 274.04858398 C262.76308322 275.80291577 262.79022884 277.55718291 262.82519531 279.3112793 C263.16441319 296.78598828 260.58335465 310.83505663 248.3359375 324.27734375 C237.55931049 334.30659841 224.70964626 338.00972222 210.30793762 337.90156555 C209.23429276 337.90553996 208.16064789 337.90951436 207.05446833 337.91360921 C203.48645081 337.9231704 199.91883595 337.91145146 196.35083008 337.8996582 C193.78093824 337.90208815 191.21104735 337.90580945 188.64115906 337.91072083 C182.40416025 337.92017191 176.16727776 337.91364205 169.93028764 337.90145788 C162.6596937 337.88778722 155.38912697 337.88948012 148.11852344 337.89159121 C135.14385187 337.89477554 122.16923533 337.88314414 109.19458008 337.86352539 C96.61676356 337.84451182 84.0390115 337.83744162 71.46118164 337.84301758 C57.74591289 337.84907984 44.03067243 337.84889101 30.31540602 337.83753175 C28.85220985 337.83632451 27.38901367 337.83511853 25.92581749 337.8339138 C24.846078 337.8330085 24.846078 337.8330085 23.74452559 337.8320849 C18.68114441 337.82821181 13.6177738 337.82859696 8.55439186 337.83049965 C1.7376416 337.83284725 -5.07901415 337.82426897 -11.89575005 337.80843925 C-14.39669706 337.80419855 -16.89765247 337.80334441 -19.39860153 337.80612946 C-22.81316273 337.80935495 -26.22747766 337.8002599 -29.64201355 337.78804016 C-31.12494716 337.79370915 -31.12494716 337.79370915 -32.63783902 337.79949266 C-45.85351865 337.71587704 -58.17480665 332.99038314 -67.9140625 323.96484375 C-77.30404037 313.83233056 -81.85092954 301.13537111 -81.671875 287.43359375 C-81.6690451 286.60146362 -81.66621521 285.7693335 -81.66329956 284.9119873 C-81.65220536 282.28361944 -81.62712175 279.65560665 -81.6015625 277.02734375 C-81.59151876 275.23307788 -81.58239536 273.4388066 -81.57421875 271.64453125 C-81.55230143 267.27200096 -81.5178474 262.89973232 -81.4765625 258.52734375 C-82.72904785 258.54104004 -83.9815332 258.55473633 -85.27197266 258.56884766 C-98.74195561 258.71614581 -110.66487571 250.88853343 -120.15234375 242.01171875 C-131.45942311 229.9254961 -136.11391049 214.28671746 -135.78515625 197.984375 C-134.27654778 181.08414085 -126.56037323 167.78104204 -114.01416016 156.77832031 C-110.17125499 153.65176489 -106.00091755 151.48768123 -101.4765625 149.52734375 C-100.54714844 149.11742187 -99.61773437 148.7075 -98.66015625 148.28515625 C-92.6833198 145.87447117 -87.87402434 145.32199312 -81.4765625 145.52734375 C-81.49750977 144.92897705 -81.51845703 144.33061035 -81.54003906 143.71411133 C-82.12127976 124.56075898 -80.36545992 109.98275551 -66.7890625 95.27734375 C-56.50067722 85.58596342 -45.35972042 81.52734375 -31.4765625 81.52734375 C-31.4765625 74.26734375 -31.4765625 67.00734375 -31.4765625 59.52734375 C-33.1265625 59.19734375 -34.7765625 58.86734375 -36.4765625 58.52734375 C-43.93467519 54.3743677 -50.33669274 47.23070035 -52.99609375 39.04296875 C-55.17048219 27.65836588 -54.00088909 18.29886958 -47.4765625 8.52734375 C-36.03410029 -7.01322364 -16.22382461 -9.64729003 0 0 Z " fill="#ABB7FD" transform="translate(421.4765625,227.47265625)"/>
<path d="M0 0 C0.83160645 0.01933594 1.66321289 0.03867188 2.52001953 0.05859375 C15.57363264 0.3869258 28.39598708 1.64630501 41.34375 3.30078125 C47.55145179 4.08910991 53.7518346 4.6397678 60 5 C60 5.66 60 6.32 60 7 C60.54930176 7.03230713 61.09860352 7.06461426 61.66455078 7.09790039 C69.59832863 7.71543719 77.17456759 9.49584468 84.875 11.4375 C85.56920044 11.61129181 86.26340088 11.78508362 86.9786377 11.96414185 C108.78614358 17.46827571 129.74378934 25.22409807 150 35 C151.04172363 35.49814209 151.04172363 35.49814209 152.10449219 36.00634766 C156.78142093 38.25319517 161.40238046 40.59542022 166 43 C166.67643555 43.35078613 167.35287109 43.70157227 168.04980469 44.06298828 C179.2654255 49.92652945 189.76250194 56.67209914 200.20507812 63.81835938 C201.18927734 64.48931641 202.17347656 65.16027344 203.1875 65.8515625 C204.06792969 66.45822754 204.94835937 67.06489258 205.85546875 67.68994141 C207.86561948 69.17376951 207.86561948 69.17376951 210 69 C211.17241639 70.15319645 212.33952778 71.31229126 213.47900391 72.49804688 C216.3403113 75.32353051 219.54488136 77.74770243 222.6875 80.25 C228.9771669 85.31480341 235.08604661 90.49722384 241 96 C241.59232422 96.54865723 242.18464844 97.09731445 242.79492188 97.66259766 C247.21405669 101.75653846 251.62916519 105.85446595 256 110 C256.51481934 110.48275391 257.02963867 110.96550781 257.56005859 111.46289062 C258.74633321 112.60204783 259.87941232 113.79616867 261 115 C261 115.66 261 116.32 261 117 C261.66 117 262.32 117 263 117 C264.33984375 118.29296875 264.33984375 118.29296875 265.9375 120.1875 C266.55238281 120.91195312 267.16726563 121.63640625 267.80078125 122.3828125 C268.52652344 123.24648438 269.25226562 124.11015625 270 125 C270.90921921 126.06069977 271.81943217 127.12054826 272.73046875 128.1796875 C280.95716304 137.77889234 280.95716304 137.77889234 284.0625 142.3125 C285.0215625 143.6428125 285.0215625 143.6428125 286 145 C286.66 145 287.32 145 288 145 C288.08378906 145.54140625 288.16757812 146.0828125 288.25390625 146.640625 C289.25951676 149.82067082 290.98520202 152.04629032 292.9375 154.75 C297.15625286 160.65487335 301.00675632 166.73774167 304.72436523 172.96972656 C305.76446875 174.67908304 306.87590427 176.34466811 308 178 C308.66 178 309.32 178 310 178 C310.10707275 178.71051514 310.21414551 179.42103027 310.32446289 180.15307617 C311.07444247 183.31372376 312.25789932 185.69822756 313.80859375 188.55078125 C314.38593262 189.62948486 314.96327148 190.70818848 315.55810547 191.81958008 C316.17830566 192.97224365 316.79850586 194.12490723 317.4375 195.3125 C324.10965268 207.90355275 329.83753501 220.71100819 335 234 C335.35255859 234.88896973 335.70511719 235.77793945 336.06835938 236.69384766 C348.05443796 267.06944925 355.24985301 299.47791287 358 332 C358.16628906 333.79630859 358.16628906 333.79630859 358.3359375 335.62890625 C361.56905524 376.82931203 357.84235656 419.14417903 347 459 C346.74379883 459.94617188 346.48759766 460.89234375 346.22363281 461.8671875 C336.28292411 497.88822479 320.63220429 533.42214731 299 564 C298.0773832 565.33282014 297.15557123 566.66619761 296.234375 568 C290.18818358 576.70828383 283.89901977 585.16490026 277.25634766 593.42626953 C276.02464013 594.9691352 274.81478813 596.529368 273.60546875 598.08984375 C272.89003906 599.00894531 272.17460938 599.92804687 271.4375 600.875 C270.81746094 601.67679688 270.19742188 602.47859375 269.55859375 603.3046875 C269.04425781 603.86414063 268.52992188 604.42359375 268 605 C267.34 605 266.68 605 266 605 C265.73574219 605.58007812 265.47148438 606.16015625 265.19921875 606.7578125 C262.00365154 612.73258637 256.78458779 617.32021714 251.61328125 621.57421875 C249.7524457 623.14514719 249.7524457 623.14514719 247.5625 625.9375 C244.36733408 629.75611293 240.78782064 632.78426673 237 636 C236.03449219 636.85335937 235.06898438 637.70671875 234.07421875 638.5859375 C212.78769914 657.33390452 189.12762258 673.81603715 164 687 C163.3714209 687.33016113 162.7428418 687.66032227 162.09521484 688.00048828 C157.4396664 690.42439303 152.73606175 692.73792009 148 695 C147.25830566 695.35562012 146.51661133 695.71124023 145.75244141 696.07763672 C118.76050071 708.90801357 90.31974506 717.82894428 60.97119141 723.37353516 C58.08799683 723.85055869 58.08799683 723.85055869 56 725 C54.25936813 725.19623334 52.51303595 725.34293476 50.765625 725.46484375 C46.24145344 725.80825606 41.74187642 726.23573622 37.234375 726.75390625 C5.83526808 730.22722144 -25.2807801 729.94278722 -56.65429688 726.36376953 C-61.76135549 725.80849243 -66.87837411 725.39501276 -72 725 C-72 724.34 -72 723.68 -72 723 C-72.65556885 722.9589917 -73.3111377 722.9179834 -73.98657227 722.87573242 C-81.17586423 722.33598055 -87.94919776 721.05227369 -94.9375 719.3125 C-96.01781494 719.04848389 -97.09812988 718.78446777 -98.21118164 718.51245117 C-107.46956081 716.21198325 -116.61147021 713.58101961 -125.70654297 710.70556641 C-127.3810597 710.19041276 -129.06369943 709.70145414 -130.75048828 709.22802734 C-131.65911621 708.97102051 -132.56774414 708.71401367 -133.50390625 708.44921875 C-134.33865479 708.21936279 -135.17340332 707.98950684 -136.03344727 707.75268555 C-138 707 -138 707 -139 705 C-140.65 705 -142.3 705 -144 705 C-144 704.34 -144 703.68 -144 703 C-145.41601714 702.51891725 -146.83284437 702.04021859 -148.25 701.5625 C-149.03890625 701.29566406 -149.8278125 701.02882813 -150.640625 700.75390625 C-155.27630031 699.1372292 -155.27630031 699.1372292 -160 700 C-160 699.01 -160 698.02 -160 697 C-160.95777344 696.52691406 -161.91554688 696.05382812 -162.90234375 695.56640625 C-176.99773442 688.57957493 -190.97031336 681.63250275 -204.046875 672.84765625 C-206.6653626 671.2093697 -209.09758447 670.02659512 -212 669 C-212 668.34 -212 667.68 -212 667 C-212.55558594 666.74476563 -213.11117187 666.48953125 -213.68359375 666.2265625 C-216.34056103 664.8196692 -218.64471107 663.16252583 -221.0625 661.375 C-223.99224226 659.21480337 -226.92048714 657.05677951 -229.8828125 654.94140625 C-234.68282639 651.51186986 -239.30067614 648.02383287 -243.6796875 644.0703125 C-245.49659574 642.44916542 -247.33122536 640.8701745 -249.1953125 639.3046875 C-256.7430278 632.93274695 -263.93203717 626.27837217 -270.9375 619.3125 C-272.13705322 618.12660278 -272.13705322 618.12660278 -273.36083984 616.91674805 C-274.09641113 616.177229 -274.83198242 615.43770996 -275.58984375 614.67578125 C-276.24847412 614.01489502 -276.90710449 613.35400879 -277.58569336 612.6730957 C-279 611 -279 611 -279 609 C-279.66 609 -280.32 609 -281 609 C-282.45659977 607.38617052 -283.84048951 605.70636784 -285.1875 604 C-287.84526049 600.64870831 -290.53445469 597.37835698 -293.37890625 594.18359375 C-297.07811195 589.97942977 -300.44318747 585.57914494 -303.75 581.0625 C-304.35634277 580.23476074 -304.96268555 579.40702148 -305.58740234 578.55419922 C-354 511.8962231 -354 511.8962231 -354 485 C-354.99 484.67 -355.98 484.34 -357 484 C-357.33 483.01 -357.66 482.02 -358 481 C-357.34 481 -356.68 481 -356 481 C-356.37511719 479.86046875 -356.75023437 478.7209375 -357.13671875 477.546875 C-370.55065933 436.27355078 -370.55065933 436.27355078 -370 421 C-370.66 420.67 -371.32 420.34 -372 420 C-372.29411139 417.53492207 -372.46915883 415.16217927 -372.5625 412.6875 C-372.62466047 411.33716301 -372.68851271 409.98690303 -372.75390625 408.63671875 C-372.78624359 407.94381744 -372.81858093 407.25091614 -372.85189819 406.53701782 C-373.00979238 403.83225431 -373.25214165 401.14274194 -373.50048828 398.44482422 C-374.01131999 392.37221234 -374.19248811 386.33813259 -374.23828125 380.24609375 C-374.2480751 379.15905151 -374.25786896 378.07200928 -374.26795959 376.95202637 C-374.69232787 317.57743779 -366.81288889 257.04161338 -338.06738281 204.00097656 C-336.85858432 201.73489411 -335.70576999 199.44436113 -334.5546875 197.1484375 C-325.05743964 178.3547367 -313.82651251 160.69422831 -301 144 C-300.3179248 143.1037793 -300.3179248 143.1037793 -299.62207031 142.18945312 C-293.44913813 134.09422926 -286.97711415 126.41602155 -280 119 C-280.33 118.34 -280.66 117.68 -281 117 C-280.25596924 116.58266602 -279.51193848 116.16533203 -278.74536133 115.73535156 C-276.13331071 114.08426612 -274.22181027 112.43890508 -272.07421875 110.234375 C-271.35943359 109.50863281 -270.64464844 108.78289062 -269.90820312 108.03515625 C-268.80895508 106.90400391 -268.80895508 106.90400391 -267.6875 105.75 C-262.31374418 100.24658251 -256.85481359 94.98980166 -251 90 C-249.95513055 89.0879249 -248.91081807 88.17521116 -247.8671875 87.26171875 C-240.76683746 81.15319306 -233.44904001 75.58376955 -225.76171875 70.23828125 C-224.00268847 69.00188968 -222.26481428 67.74055224 -220.53125 66.46875 C-212.30557223 60.4488017 -203.83850151 55.0729988 -195 50 C-194.31454102 49.60312988 -193.62908203 49.20625977 -192.92285156 48.79736328 C-134.33718019 15 -134.33718019 15 -112 15 C-111.67 14.34 -111.34 13.68 -111 13 C-108.86523438 12.45068359 -108.86523438 12.45068359 -106.09375 12.0234375 C-102.31205909 11.3984351 -98.5779075 10.71739146 -94.84375 9.8515625 C-63.73457002 2.68168703 -31.94648005 -0.92342642 0 0 Z M-46.640625 28.68798828 C-49.23595163 29.03120304 -51.83435813 29.31230289 -54.4375 29.58984375 C-85.26972156 33.02620332 -115.5631551 41.67952397 -144 54 C-144.92458008 54.39525879 -145.84916016 54.79051758 -146.80175781 55.19775391 C-168.48132157 64.53190999 -188.95834328 76.03041144 -208 90 C-208.56187012 90.41169434 -209.12374023 90.82338867 -209.70263672 91.24755859 C-279.46985797 142.80220702 -328.99991804 219.32975051 -343.125 305.3125 C-343.28379639 306.27140137 -343.44259277 307.23030273 -343.60620117 308.21826172 C-346.42628104 326.18903893 -347.34874493 343.93445435 -347.31567383 362.11621094 C-347.31251622 365.73142777 -347.33606646 369.34582108 -347.36132812 372.9609375 C-347.40296164 388.19802483 -346.33005476 402.9449455 -344 418 C-343.89531403 418.69959839 -343.79062805 419.39919678 -343.68276978 420.11999512 C-341.17251823 436.80412495 -337.24393613 452.97423723 -332 469 C-331.67547852 469.99676758 -331.35095703 470.99353516 -331.01660156 472.02050781 C-320.55490938 503.648644 -305.5390671 533.03911671 -286 560 C-285.52208008 560.66193359 -285.04416016 561.32386719 -284.55175781 562.00585938 C-233.77899496 631.95646872 -155.6034312 682.98314773 -70 698 C-60.03071765 699.5709324 -50.02643716 700.85069007 -40 702 C-39.30936462 702.08661896 -38.61872925 702.17323792 -37.90716553 702.26248169 C-32.59732739 702.90423151 -27.36981168 703.17268264 -22.0234375 703.203125 C-21.18833649 703.21022995 -20.35323547 703.2173349 -19.49282837 703.22465515 C21.54985029 703.49329693 60.8806569 698.89824604 100 686 C100.91072266 685.70013184 101.82144531 685.40026367 102.75976562 685.09130859 C139.12518278 672.90721861 173.14655076 654.06344052 203 630 C203.92683594 629.26523437 204.85367188 628.53046875 205.80859375 627.7734375 C211.83541441 622.93488361 217.55302872 617.82414859 223.2109375 612.56640625 C225.53810845 610.42501785 227.90058615 608.35657371 230.3125 606.3125 C233.63144667 603.43927964 236.4587184 600.30311011 239.29296875 596.95703125 C240.91260807 595.10019075 242.60123291 593.39602508 244.375 591.6875 C248.4687787 587.63890649 252.05307385 583.23068514 255.62792969 578.72265625 C256.59408129 577.50963744 257.56669779 576.30175377 258.54394531 575.09765625 C291.89121522 534.00025206 314.11268254 485.43305332 325.1875 433.8125 C325.5446106 432.18683105 325.5446106 432.18683105 325.90893555 430.52832031 C330.21628103 409.6030457 331.49932387 388.58231344 331.39111328 367.25927734 C331.37500819 363.50190968 331.39108844 359.74561712 331.41015625 355.98828125 C331.42927189 335.07184304 329.92127633 314.30841926 325.25 293.875 C324.86485229 292.14491699 324.86485229 292.14491699 324.47192383 290.37988281 C315.72137555 252.0090576 300.90357072 216.35629395 280 183 C279.43055664 182.08758545 279.43055664 182.08758545 278.84960938 181.15673828 C261.71840297 153.96135757 238.93627938 126.93069999 213.6171875 107.05859375 C210.80042107 104.84301776 208.09504877 102.52054996 205.375 100.1875 C154.36413843 57.85239877 89.25867689 34.88225389 24 28 C23.23742386 27.91370834 22.47484772 27.82741669 21.68916321 27.73851013 C15.96734782 27.11744093 10.32773846 26.84071767 4.57421875 26.83203125 C3.71269196 26.8278418 2.85116516 26.82365234 1.96353149 26.81933594 C-0.79519334 26.80964454 -3.55376111 26.80953203 -6.3125 26.8125 C-7.72736191 26.81290787 -7.72736191 26.81290787 -9.17080688 26.81332397 C-21.73678618 26.83002926 -34.17052277 26.98678683 -46.640625 28.68798828 Z M-356 482 C-355 484 -355 484 -355 484 Z " fill="#2655AB" transform="translate(520,139)"/>
<path d="M0 0 C7.64523854 5.40791957 12.89379751 13.2383958 14.5234375 22.52734375 C15.39459707 32.75950884 13.79260038 41.64005052 7.1953125 49.70703125 C2.49828307 54.82108666 -0.72826061 57.27790979 -7.4765625 59.52734375 C-7.4765625 66.78734375 -7.4765625 74.04734375 -7.4765625 81.52734375 C-4.67630585 81.5184613 -1.87604919 81.50957886 1.00906372 81.50042725 C26.73325374 81.42070243 52.45742924 81.36105262 78.18171597 81.32308243 C81.55848146 81.31808006 84.93524666 81.31290273 88.31201172 81.30761719 C89.32032161 81.30604332 89.32032161 81.30604332 90.34900139 81.30443767 C101.20981973 81.28706861 112.07055272 81.25555041 122.93132056 81.21873257 C134.08911903 81.18122541 145.24688849 81.1593864 156.4047507 81.15098977 C162.66623156 81.14578737 168.92751933 81.13360957 175.18893814 81.10442352 C181.09043146 81.07713977 186.99165334 81.06892493 192.89320374 81.07491302 C195.05139011 81.07381857 197.20958618 81.06594249 199.36771774 81.05052185 C217.51198297 80.92730624 234.33157228 82.65090789 248.2734375 95.65234375 C262.0585231 110.42560753 263.03960979 126.35249923 262.5234375 145.52734375 C263.71195313 145.49382812 264.90046875 145.4603125 266.125 145.42578125 C279.77985965 145.4438035 291.5895746 153.06897525 301.203125 162.125 C311.81190998 173.10884304 316.80643081 187.14051606 316.84033203 202.30566406 C316.53606042 217.98504293 310.71860504 231.85040491 299.9453125 243.23828125 C290.89868205 251.78880615 279.10727264 258.60702836 266.38500977 258.54589844 C264.47353149 258.53671387 264.47353149 258.53671387 262.5234375 258.52734375 C262.54438477 259.61039795 262.56533203 260.69345215 262.58691406 261.80932617 C262.66018737 265.88894031 262.70554919 269.96849837 262.74316406 274.04858398 C262.76308322 275.80291577 262.79022884 277.55718291 262.82519531 279.3112793 C263.16441319 296.78598828 260.58335465 310.83505663 248.3359375 324.27734375 C237.55931049 334.30659841 224.70964626 338.00972222 210.30793762 337.90156555 C209.23429276 337.90553996 208.16064789 337.90951436 207.05446833 337.91360921 C203.48645081 337.9231704 199.91883595 337.91145146 196.35083008 337.8996582 C193.78093824 337.90208815 191.21104735 337.90580945 188.64115906 337.91072083 C182.40416025 337.92017191 176.16727776 337.91364205 169.93028764 337.90145788 C162.6596937 337.88778722 155.38912697 337.88948012 148.11852344 337.89159121 C135.14385187 337.89477554 122.16923533 337.88314414 109.19458008 337.86352539 C96.61676356 337.84451182 84.0390115 337.83744162 71.46118164 337.84301758 C57.74591289 337.84907984 44.03067243 337.84889101 30.31540602 337.83753175 C28.85220985 337.83632451 27.38901367 337.83511853 25.92581749 337.8339138 C24.846078 337.8330085 24.846078 337.8330085 23.74452559 337.8320849 C18.68114441 337.82821181 13.6177738 337.82859696 8.55439186 337.83049965 C1.7376416 337.83284725 -5.07901415 337.82426897 -11.89575005 337.80843925 C-14.39669706 337.80419855 -16.89765247 337.80334441 -19.39860153 337.80612946 C-22.81316273 337.80935495 -26.22747766 337.8002599 -29.64201355 337.78804016 C-31.12494716 337.79370915 -31.12494716 337.79370915 -32.63783902 337.79949266 C-45.85351865 337.71587704 -58.17480665 332.99038314 -67.9140625 323.96484375 C-77.30404037 313.83233056 -81.85092954 301.13537111 -81.671875 287.43359375 C-81.6690451 286.60146362 -81.66621521 285.7693335 -81.66329956 284.9119873 C-81.65220536 282.28361944 -81.62712175 279.65560665 -81.6015625 277.02734375 C-81.59151876 275.23307788 -81.58239536 273.4388066 -81.57421875 271.64453125 C-81.55230143 267.27200096 -81.5178474 262.89973232 -81.4765625 258.52734375 C-82.72904785 258.54104004 -83.9815332 258.55473633 -85.27197266 258.56884766 C-98.74195561 258.71614581 -110.66487571 250.88853343 -120.15234375 242.01171875 C-131.45942311 229.9254961 -136.11391049 214.28671746 -135.78515625 197.984375 C-134.27654778 181.08414085 -126.56037323 167.78104204 -114.01416016 156.77832031 C-110.17125499 153.65176489 -106.00091755 151.48768123 -101.4765625 149.52734375 C-100.54714844 149.11742187 -99.61773437 148.7075 -98.66015625 148.28515625 C-92.6833198 145.87447117 -87.87402434 145.32199312 -81.4765625 145.52734375 C-81.49750977 144.92897705 -81.51845703 144.33061035 -81.54003906 143.71411133 C-82.12127976 124.56075898 -80.36545992 109.98275551 -66.7890625 95.27734375 C-56.50067722 85.58596342 -45.35972042 81.52734375 -31.4765625 81.52734375 C-31.4765625 74.26734375 -31.4765625 67.00734375 -31.4765625 59.52734375 C-33.1265625 59.19734375 -34.7765625 58.86734375 -36.4765625 58.52734375 C-43.93467519 54.3743677 -50.33669274 47.23070035 -52.99609375 39.04296875 C-55.17048219 27.65836588 -54.00088909 18.29886958 -47.4765625 8.52734375 C-36.03410029 -7.01322364 -16.22382461 -9.64729003 0 0 Z M-51.3515625 114.52734375 C-51.90585937 115.18734375 -52.46015625 115.84734375 -53.03125 116.52734375 C-56.23831363 120.96522639 -56.73163015 124.05714705 -56.75744629 129.58474731 C-56.76338853 130.29573102 -56.76933078 131.00671472 -56.77545309 131.73924339 C-56.79279774 134.12194567 -56.79584101 136.50444663 -56.79882812 138.88720703 C-56.80808679 140.59569222 -56.81813642 142.30417328 -56.82891846 144.01264954 C-56.85515325 148.65549646 -56.86805437 153.29828555 -56.87693977 157.94119501 C-56.88280493 160.8439108 -56.89101536 163.74661084 -56.89994812 166.6493187 C-56.92729796 175.73691519 -56.94662984 184.82447564 -56.9543519 193.91211045 C-56.963306 204.39143152 -56.99836797 214.87022989 -57.05635309 225.34939206 C-57.09964594 233.45572983 -57.11976368 241.56192088 -57.12243414 249.66837299 C-57.12452653 254.50679237 -57.1362606 259.3447204 -57.17207336 264.18301773 C-57.20513726 268.73866787 -57.20929781 273.29346016 -57.19179535 277.84918785 C-57.19025983 279.51562365 -57.19887133 281.18210652 -57.21871185 282.84842491 C-57.32430184 292.273937 -57.00736926 300.05873549 -50.4765625 307.52734375 C-46.09743266 311.50535773 -41.99842931 313.64806095 -36.05363178 313.66156483 C-35.14342598 313.66602267 -34.23322018 313.67048051 -33.29543239 313.67507344 C-32.29409037 313.67488908 -31.29274834 313.67470472 -30.26106262 313.67451477 C-29.19833671 313.67819146 -28.13561079 313.68186815 -27.04068106 313.68565625 C-23.46176758 313.69671347 -19.88288311 313.70054039 -16.30395508 313.7043457 C-13.7450959 313.7106088 -11.18623763 313.71725546 -8.62738037 313.72425842 C-0.93553551 313.74350031 6.75630426 313.7540888 14.44816706 313.76298621 C18.07080052 313.76736975 21.69343252 313.77273641 25.31606483 313.77797508 C37.35932582 313.79498731 49.40258589 313.80948124 61.44585705 313.81672382 C64.57108245 313.8186337 67.69630783 313.82055404 70.8215332 313.82250977 C71.59828867 313.82299351 72.37504414 313.82347725 73.17533765 313.82397565 C85.75688169 313.83227507 98.33833063 313.85761051 110.91983315 313.89009044 C123.83827043 313.92316816 136.75665939 313.94117324 149.67513925 313.94436806 C156.92787181 313.94653254 164.18046569 313.95527193 171.43315697 313.98082924 C178.25640441 314.00481776 185.07939855 314.00835742 191.90267944 313.99806786 C194.40685671 313.99757152 196.91104611 314.00392053 199.41518593 314.0176239 C202.834764 314.03528953 206.253441 314.02826188 209.67301941 314.01509094 C210.66320782 314.02606019 211.65339624 314.03702943 212.67359036 314.04833108 C220.27969339 313.97763784 225.39435161 312.08750493 231.2734375 307.27734375 C238.3883055 298.58139397 238.098178 290.45951673 238.04101562 279.7734375 C238.04644126 278.07096764 238.05356639 276.36850247 238.06225586 274.66604614 C238.08043975 270.0585738 238.07344215 265.45146106 238.06073952 260.8439827 C238.05058623 256.01373604 238.06001166 251.1835194 238.06628418 246.35327148 C238.07355381 238.24294529 238.06399086 230.13276497 238.04492188 222.02246094 C238.02315446 212.65653638 238.03020631 203.29096018 238.0522275 193.92504406 C238.07040101 185.8721402 238.07293028 177.81934098 238.06247282 169.76642323 C238.05624862 164.96180833 238.05537268 160.15735697 238.06861877 155.35275269 C238.08020509 150.83490634 238.07210094 146.31750751 238.04904175 141.79970932 C238.04376948 140.1453615 238.04524299 138.49097577 238.05409241 136.83664322 C238.26096463 123.59625465 238.26096463 123.59625465 231.55859375 112.50390625 C230.90761719 112.05789063 230.25664063 111.611875 229.5859375 111.15234375 C228.93753906 110.69085938 228.28914063 110.229375 227.62109375 109.75390625 C221.7413745 106.31585812 216.7839983 106.23905852 210.10539246 106.25991821 C209.04504124 106.2553871 207.98469003 106.25085599 206.89220697 106.24618757 C203.33328594 106.23351066 199.7745173 106.23516608 196.21557617 106.23681641 C193.66627302 106.23083322 191.11697168 106.22402816 188.56767273 106.21646118 C182.35795466 106.20061063 176.14829256 106.19435186 169.93855616 106.19323643 C164.89011118 106.19228568 159.84167871 106.18817409 154.79323769 106.18183517 C140.47553999 106.16422389 126.15787227 106.15499609 111.84016367 106.15649612 C110.6826286 106.15661599 110.6826286 106.15661599 109.50170898 106.15673828 C108.34275821 106.15686092 108.34275821 106.15686092 107.16039429 106.15698604 C94.64040323 106.15779884 82.1205325 106.13866241 69.60057624 106.11046155 C56.74082962 106.08172422 43.88114167 106.06792173 31.02136213 106.0696491 C23.80332025 106.07031272 16.58540452 106.06483263 9.36739159 106.043293 C2.57856947 106.02316378 -4.20994214 106.02376355 -10.99879265 106.03832626 C-13.49006667 106.04041959 -15.98135722 106.03568245 -18.47260284 106.02360535 C-21.8745715 106.00818181 -25.2756179 106.01744306 -28.67756653 106.03286743 C-29.66249976 106.02258031 -30.64743298 106.01229318 -31.66221267 106.00169432 C-39.70865657 106.08226663 -46.12369957 108.12383701 -51.3515625 114.52734375 Z " fill="#2454AB" transform="translate(421.4765625,227.47265625)"/>
<path d="M0 0 C9.57 0 19.14 0 29 0 C32.16851894 6.97074168 35.21390762 13.85308027 37.96875 20.9765625 C38.32561386 21.89165085 38.68247772 22.8067392 39.05015564 23.7495575 C40.20287327 26.70696839 41.35142195 29.66597927 42.5 32.625 C43.71871543 35.75459972 44.93849851 38.88378203 46.15830994 42.01295471 C46.97073312 44.09731737 47.78279689 46.18182015 48.59449768 48.26646423 C51.60474658 55.99587902 54.64125608 63.7145627 57.69244385 71.42788696 C63.1132184 85.13968891 68.48172586 98.87212452 73.8298645 112.61239624 C74.68471056 114.80711012 75.54086466 117.00131503 76.39840698 119.19497681 C77.60532714 122.28347367 78.80715986 125.3739059 80.0078125 128.46484375 C80.3666301 129.38020905 80.72544769 130.29557434 81.09513855 131.23867798 C81.4338649 132.11373993 81.77259125 132.98880188 82.12158203 133.89038086 C82.55907272 135.01348915 82.55907272 135.01348915 83.00540161 136.1592865 C84.48668244 140.39003379 85.71194358 144.70647858 87 149 C76.77 149 66.54 149 56 149 C54.14375 144.3903125 54.14375 144.3903125 52.25 139.6875 C51.86875977 138.74350342 51.48751953 137.79950684 51.09472656 136.8269043 C50.77987305 136.04226807 50.46501953 135.25763184 50.140625 134.44921875 C49.82641602 133.66893311 49.51220703 132.88864746 49.18847656 132.0847168 C47.38968815 127.4159223 45.70985232 122.70209388 44 118 C14.3 117.505 14.3 117.505 -16 117 C-16.99 120.3 -17.98 123.6 -19 127 C-19.6599962 128.93696817 -20.33715255 130.86831677 -21.04296875 132.7890625 C-21.36031982 133.65740723 -21.6776709 134.52575195 -22.00463867 135.42041016 C-22.39498291 136.4779248 -22.78532715 137.53543945 -23.1875 138.625 C-24.445625 142.04875 -25.70375 145.4725 -27 149 C-37.56 149 -48.12 149 -59 149 C-53.94404258 135.28031655 -48.52597019 121.71723076 -43.07553864 108.15013504 C-40.68585072 102.19928336 -38.30223242 96.2459952 -35.91796875 90.29296875 C-35.64232086 89.60487059 -35.36667297 88.91677242 -35.08267212 88.2078228 C-28.05963582 70.6741488 -21.09074236 53.1189968 -14.125 35.5625 C-13.52373258 34.0471598 -12.92246508 32.53181963 -12.32119751 31.01647949 C-10.12382264 25.47836173 -7.92645414 19.94024155 -5.73017883 14.40168762 C-5.26637314 13.23216049 -4.80256744 12.06263336 -4.32470703 10.85766602 C-3.92188507 9.84172867 -3.51906311 8.82579132 -3.10403442 7.77906799 C-2.07328796 5.18447995 -1.03686034 2.59215085 0 0 Z " fill="#2454AB" transform="translate(468,366)"/>
<path d="M0 0 C9.9 0 19.8 0 30 0 C30 49.5 30 99 30 150 C20.1 150 10.2 150 0 150 C0 100.5 0 51 0 0 Z " fill="#2353AA" transform="translate(573,365)"/>
<path d="M0 0 C5.28 0 10.56 0 16 0 C19.54628875 7.59277735 22.72670305 15.25117659 25.70736694 23.08209229 C26.98986197 26.45094005 28.2829225 29.81570778 29.578125 33.1796875 C29.84997116 33.88576141 30.12181732 34.59183533 30.40190125 35.31930542 C32.51004765 40.77519457 34.67361554 46.20759792 36.859375 51.6328125 C37.17934952 52.42766052 37.49932404 53.22250854 37.82899475 54.04144287 C39.3941363 57.92596621 40.96515743 61.8080074 42.54272461 65.6875 C43.11585122 67.10671892 43.68885543 68.52598728 44.26171875 69.9453125 C44.52470764 70.58671173 44.78769653 71.22811096 45.05865479 71.88894653 C46.43807863 75.31821189 47.26548473 78.32742367 48 82 C42.06 82 36.12 82 30 82 C28.35 77.71 26.7 73.42 25 69 C13.78 68.67 2.56 68.34 -9 68 C-9.99 71.3 -10.98 74.6 -12 78 C-12.66 79.32 -13.32 80.64 -14 82 C-19.94 82 -25.88 82 -32 82 C-29.60618059 74.50042624 -26.76178223 67.23443525 -23.8125 59.9375 C-23.29746995 58.65726592 -22.78274884 57.37690752 -22.26831055 56.09643555 C-21.140871 53.29075067 -20.01220559 50.48556311 -18.8828125 47.68066406 C-15.71062416 39.79867827 -12.55404649 31.91043057 -9.39730835 24.02224731 C-8.32216966 21.33665388 -7.2457467 18.65157779 -6.16918945 15.96655273 C-5.50467156 14.30714832 -4.84019993 12.64772539 -4.17578125 10.98828125 C-3.86902466 10.22397797 -3.56226807 9.45967468 -3.24621582 8.67221069 C-2.0965235 5.79810308 -0.97914852 2.93744555 0 0 Z " fill="#2352AA" transform="translate(310,605)"/>
<path d="M0 0 C3.61784031 2.52745567 6.18617494 5.02905756 8.52734375 8.765625 C8.93726563 9.38695312 9.3471875 10.00828125 9.76953125 10.6484375 C14.02740441 18.37133847 13.77857 28.35301708 11.83203125 36.7734375 C8.55351791 45.78246154 3.48059802 50.7813839 -5.10546875 54.8203125 C-12.5842901 57.80690453 -21.76428206 58.26912597 -29.28515625 55.203125 C-37.29150124 51.0016302 -43.01577247 45.16303367 -46.47265625 36.765625 C-48.77961714 27.79080298 -48.83458151 18.11625682 -44.078125 10.015625 C-33.49877213 -4.81091333 -16.28476917 -9.35554524 0 0 Z " fill="#2251A9" transform="translate(642.47265625,631.234375)"/>
<path d="M0 0 C5.28 0 10.56 0 16 0 C16.01981934 1.16047852 16.03963867 2.32095703 16.06005859 3.51660156 C16.13617912 7.82557734 16.22488666 12.13421828 16.31738281 16.44287109 C16.3556459 18.30706162 16.39050346 20.1713253 16.421875 22.03564453 C16.46758356 24.71673716 16.52556822 27.39732733 16.5859375 30.078125 C16.59748871 30.91055725 16.60903992 31.7429895 16.62094116 32.60064697 C16.67852826 38.11025081 16.67852826 38.11025081 19 43 C22.92767594 44.96383797 27.71773499 44.47510337 32 44 C34.65563802 42.1031157 35.57242527 40.85514945 37 38 C37.15706331 35.15791974 37.2584957 32.33662693 37.31640625 29.4921875 C37.33718735 28.65156769 37.35796844 27.81094788 37.37937927 26.94485474 C37.44485439 24.25498765 37.5037502 21.56502157 37.5625 18.875 C37.60568716 17.05337511 37.64930152 15.23176029 37.69335938 13.41015625 C37.80053368 8.94020606 37.90180685 4.47015614 38 0 C43.28 0 48.56 0 54 0 C54 19.47 54 38.94 54 59 C49.05 59 44.1 59 39 59 C38.505 55.535 38.505 55.535 38 52 C37.29875 52.763125 36.5975 53.52625 35.875 54.3125 C30.20474927 59.61295177 25.58299788 60.55918232 17.9765625 60.3515625 C12.38524191 59.6911703 8.6334226 57.6334226 4.6875 53.6875 C0.37505701 46.81953523 -0.42653165 41.68176877 -0.29296875 33.69140625 C-0.28872391 32.72468491 -0.28447906 31.75796356 -0.28010559 30.76194763 C-0.26340522 27.69517351 -0.22576899 24.6290732 -0.1875 21.5625 C-0.172442 19.47461891 -0.15875555 17.38672745 -0.14648438 15.29882812 C-0.11352999 10.19896185 -0.06180751 5.0995949 0 0 Z " fill="#2555AD" transform="translate(485,628)"/>
<path d="M0 0 C20.46 0 40.92 0 62 0 C62 5.28 62 10.56 62 16 C54.74 16 47.48 16 40 16 C40 38.11 40 60.22 40 83 C34.39 83 28.78 83 23 83 C23 60.89 23 38.78 23 16 C15.41 16 7.82 16 0 16 C0 10.72 0 5.44 0 0 Z " fill="#2151A9" transform="translate(421,604)"/>
<path d="M0 0 C2.98815211 2.3565102 4.7245057 3.84369247 5.921875 7.515625 C5.9425 8.216875 5.963125 8.918125 5.984375 9.640625 C4.7480582 10.53485414 3.49465938 11.40550391 2.234375 12.265625 C1.53828125 12.75289062 0.8421875 13.24015625 0.125 13.7421875 C-2.015625 14.640625 -2.015625 14.640625 -4.1328125 13.890625 C-5.55953607 12.94342263 -6.97726795 11.98265877 -8.390625 11.015625 C-11.54371194 9.36400803 -13.50016913 9.25851023 -17.015625 9.640625 C-18.005625 10.300625 -18.995625 10.960625 -20.015625 11.640625 C-20.015625 12.960625 -20.015625 14.280625 -20.015625 15.640625 C-15.2023099 17.52819955 -10.43902767 19.07710798 -5.453125 20.453125 C1.19015813 22.47231314 5.7858868 25.00834015 9.421875 31.015625 C10.8465576 37.66414379 10.39068817 42.70704722 6.984375 48.640625 C1.98416811 54.26101259 -3.11102944 56.23961248 -10.62890625 57.01171875 C-19.86760053 57.17756648 -26.60915737 56.24033688 -33.76953125 50.1484375 C-35.8910859 47.9170476 -36.95420592 46.14426143 -37.328125 43.078125 C-35.32017173 39.34906894 -32.01841009 37.01449372 -28.015625 35.640625 C-24.54177104 36.85169335 -22.54343256 39.02855719 -20.015625 41.640625 C-17.55192968 42.87247266 -15.8261749 42.80794842 -13.078125 42.828125 C-12.20285156 42.84230469 -11.32757812 42.85648438 -10.42578125 42.87109375 C-7.75318165 42.80725849 -7.75318165 42.80725849 -5.015625 40.640625 C-4.88121722 38.21142635 -4.88121722 38.21142635 -6.015625 35.640625 C-9.49201854 33.99723897 -12.83669462 32.97300257 -16.5234375 31.93359375 C-29.95711082 28.09246698 -29.95711082 28.09246698 -33.453125 21.953125 C-35.62349314 16.8983282 -36.13673326 11.95087957 -34.35546875 6.69140625 C-32.04539835 2.08126576 -28.54357475 -0.95638412 -24.015625 -3.359375 C-15.78105489 -6.00381012 -7.1134206 -4.7974232 0 0 Z " fill="#214FA8" transform="translate(743.015625,631.359375)"/>
<path d="M0 0 C5.28 0 10.56 0 16 0 C16 5.94 16 11.88 16 18 C19.96 18 23.92 18 28 18 C28 22.95 28 27.9 28 33 C24.04 33 20.08 33 16 33 C16.06878614 36.95159258 16.15670428 40.90224623 16.26245117 44.85302734 C16.31209959 46.85882336 16.34654164 48.86497687 16.38085938 50.87109375 C16.4340332 52.75634766 16.4340332 52.75634766 16.48828125 54.6796875 C16.51446533 55.84226074 16.54064941 57.00483398 16.56762695 58.20263672 C16.71031006 59.1257666 16.85299316 60.04889648 17 61 C20.08888522 63.05925681 20.70935927 63.2390374 24.1875 63.125 C25.445625 63.08375 26.70375 63.0425 28 63 C28.495 69.435 28.495 69.435 29 76 C20.76211746 78.74596085 13.70002669 79.42009936 5.75390625 75.55859375 C1.8103607 72.05419581 0.13836336 68.19312365 -0.45410156 63.08422852 C-0.45347885 61.68229489 -0.43151201 60.28024366 -0.390625 58.87890625 C-0.38496521 58.13414536 -0.37930542 57.38938446 -0.37347412 56.62205505 C-0.3512735 54.2681862 -0.3011137 51.9159003 -0.25 49.5625 C-0.22991366 47.95640236 -0.21166664 46.3502806 -0.1953125 44.74414062 C-0.15146309 40.8288271 -0.08255471 36.9146809 0 33 C-3.63 33 -7.26 33 -11 33 C-11 28.05 -11 23.1 -11 18 C-7.37 18 -3.74 18 0 18 C0 12.06 0 6.12 0 0 Z " fill="#2150A8" transform="translate(559,610)"/>
<path d="M0 0 C9.84129851 1.9682597 17.04023583 3.83833706 23.375 11.8125 C24.28404808 13.18640221 25.16014397 14.58274295 26 16 C26.4125 16.65484375 26.825 17.3096875 27.25 17.984375 C31.426513 25.69932263 31.11382586 34.72086086 29.33984375 43.12890625 C26.19254375 52.9250478 20.0045418 59.28787749 11 64 C6.72012329 66.13993836 5.22806299 66 0 66 C0 44.22 0 22.44 0 0 Z " fill="#ACB8FD" transform="translate(684,396)"/>
<path d="M0 0 C0 21.78 0 43.56 0 66 C-10.08252972 64.87971892 -15.88678608 62.56949138 -22.875 55.3125 C-29.20273625 47.3841307 -30.81259684 38.7156765 -30.5078125 28.71875 C-29.2955284 19.84110028 -24.67378899 12.62601339 -18.14453125 6.62109375 C-12.94228043 2.68860907 -6.61861209 0 0 0 Z " fill="#AFBBFD" transform="translate(340,396)"/>
<path d="M0 0 C5.61 0 11.22 0 17 0 C17 27.06 17 54.12 17 82 C11.39 82 5.78 82 0 82 C0 54.94 0 27.88 0 0 Z " fill="#1F4FA6" transform="translate(368,605)"/>
<path d="M0 0 C2.1346875 0.0309375 2.1346875 0.0309375 4.3125 0.0625 C4.3125 5.3425 4.3125 10.6225 4.3125 16.0625 C-0.61914062 16.35546875 -0.61914062 16.35546875 -5.55078125 16.6484375 C-8.84449887 16.84863747 -8.84449887 16.84863747 -11.6875 19.0625 C-14.04277795 23.32506798 -14.02944567 27.67062863 -14.1015625 32.42578125 C-14.12092865 33.21776413 -14.1402948 34.00974701 -14.1602478 34.82572937 C-14.21977232 37.34204519 -14.26631958 39.85840744 -14.3125 42.375 C-14.35070481 44.0866079 -14.38975799 45.79819709 -14.4296875 47.50976562 C-14.52704035 51.6939101 -14.60682217 55.87786815 -14.6875 60.0625 C-19.9675 60.0625 -25.2475 60.0625 -30.6875 60.0625 C-30.6875 40.5925 -30.6875 21.1225 -30.6875 1.0625 C-25.4075 1.0625 -20.1275 1.0625 -14.6875 1.0625 C-14.3575 2.7125 -14.0275 4.3625 -13.6875 6.0625 C-12.759375 5.258125 -11.83125 4.45375 -10.875 3.625 C-7.385387 0.60066873 -4.57664052 -0.06632812 0 0 Z " fill="#2351A8" transform="translate(695.6875,626.9375)"/>
<path d="M0 0 C1.78652998 3.39736978 3.182749 6.89304583 4.57421875 10.46875 C4.81914566 11.09788803 5.06407257 11.72702606 5.31642151 12.37522888 C6.10937921 14.41582266 6.89877611 16.45776636 7.6875 18.5 C7.95534302 19.19175323 8.22318604 19.88350647 8.49914551 20.59622192 C12.90543743 31.98728906 17.05665696 43.43883518 21 55 C7.14 55 -6.72 55 -21 55 C-14.07224745 35.37136778 -14.07224745 35.37136778 -11.38671875 28.28125 C-11.08683548 27.48642212 -10.78695221 26.69159424 -10.47798157 25.87268066 C-9.85987997 24.23621601 -9.24084786 22.60010249 -8.62084961 20.96435547 C-7.66764161 18.44756721 -6.7194697 15.92891573 -5.77148438 13.41015625 C-5.1643602 11.8045749 -4.55694986 10.19910172 -3.94921875 8.59375 C-3.66696945 7.84291138 -3.38472015 7.09207275 -3.09391785 6.31848145 C-1.11467607 1.11467607 -1.11467607 1.11467607 0 0 Z " fill="#ACB8FD" transform="translate(482,403)"/>
<path d="M0 0 C3.61361555 2.25762229 6.27139019 4.7645312 8.4375 8.4375 C9.82197351 14.744546 9.05021908 19.32028171 6 25 C3.35602111 28.04057572 1.82883658 29.72372114 -2 31 C-7.35219303 31.34530278 -10.66997016 31.48807959 -15 28 C-19.82113275 22.50926548 -20.36443059 19.19672459 -20.26953125 11.984375 C-19.89910226 7.88281348 -18.912631 5.912631 -16 3 C-10.93779772 -0.66225696 -6.00985408 -2.27918618 0 0 Z " fill="#AFBAFC" transform="translate(631,642)"/>
<path d="M0 0 C3.0717718 1.71077974 5.40485654 3.80971307 7 7 C7.57717357 11.73093088 7.43416625 15.14717343 5.25 19.4375 C2.23150553 22.87522981 0.62121536 23.78853713 -3.875 24.375 C-8.62860077 23.80456791 -11.44495549 21.45137487 -14.875 18.25 C-16.56976212 14.86047576 -16.64766071 11.66069095 -16 8 C-12.14272988 0.81749703 -7.90966691 -1.3609478 0 0 Z " fill="#B0BBFC" transform="translate(406,245)"/>
<path d="M0 0 C0.66 0 1.32 0 2 0 C3.50801568 3.93447709 5.00502914 7.87304977 6.5 11.8125 C7.14388672 13.49182617 7.14388672 13.49182617 7.80078125 15.20507812 C8.20683594 16.27822266 8.61289062 17.35136719 9.03125 18.45703125 C9.40830078 19.44678955 9.78535156 20.43654785 10.17382812 21.45629883 C11 24 11 24 11 27 C4.4 27 -2.2 27 -9 27 C-8.25586432 23.27932159 -7.44581937 20.21008115 -6.15234375 16.69921875 C-5.79462891 15.72275391 -5.43691406 14.74628906 -5.06835938 13.74023438 C-4.50858398 12.22913086 -4.50858398 12.22913086 -3.9375 10.6875 C-3.37192383 9.14739258 -3.37192383 9.14739258 -2.79492188 7.57617188 C-1.86653932 5.04956113 -0.93479871 2.52424239 0 0 Z " fill="#B3BCFD" transform="translate(317,630)"/>
<path d="M0 0 C5.28 0 10.56 0 16 0 C16 19.47 16 38.94 16 59 C11.05 59 6.1 59 1 59 C1 56.69 1 54.38 1 52 C1.33 52 1.66 52 2 52 C2 53.98 2 55.96 2 58 C5.96 58 9.92 58 14 58 C14 39.52 14 21.04 14 2 C9.71 2 5.42 2 1 2 C1.02094727 3.08941895 1.04189453 4.17883789 1.06347656 5.30126953 C1.13611865 9.36021678 1.18188718 13.41910706 1.21972656 17.47851562 C1.2397871 19.23219479 1.26704251 20.98580753 1.30175781 22.73925781 C1.35052302 25.26644318 1.37302392 27.79274091 1.390625 30.3203125 C1.41127014 31.09867462 1.43191528 31.87703674 1.45318604 32.6789856 C1.45532485 37.91985655 0.42873917 40.81725941 -3 45 C-6.01044011 47.3653458 -9.19246063 47.34715905 -12.9609375 47.26953125 C-16.01702658 46.86556545 -18.38404815 45.56957111 -21 44 C-20.67 43.34 -20.34 42.68 -20 42 C-19.01 42.66 -18.02 43.32 -17 44 C-12.07727335 44.64634274 -7.50218937 45.07299241 -3.375 42.125 C-0.67409327 37.95087142 -0.78252384 34.35141647 -0.68359375 29.4921875 C-0.66281265 28.65156769 -0.64203156 27.81094788 -0.62062073 26.94485474 C-0.55514561 24.25498765 -0.4962498 21.56502157 -0.4375 18.875 C-0.39431284 17.05337511 -0.35069848 15.23176029 -0.30664062 13.41015625 C-0.19946632 8.94020606 -0.09819315 4.47015614 0 0 Z " fill="#093392" transform="translate(523,628)"/>
<path d="M0 0 C11.25 2.25 11.25 2.25 14.625 4.625 C15.27726563 5.07101562 15.92953125 5.51703125 16.6015625 5.9765625 C17.06304688 6.31429688 17.52453125 6.65203125 18 7 C15 7 15 7 2 2 C2 23.12 2 44.24 2 66 C1.34 66 0.68 66 0 66 C0 44.22 0 22.44 0 0 Z " fill="#D1D2FE" transform="translate(684,396)"/>
<path d="M0 0 C0.66 0 1.32 0 2 0 C2 24.75 2 49.5 2 75 C1.67 75 1.34 75 1 75 C-0.84732121 67.46491718 -1.28124779 60.33631777 -1.23046875 52.59765625 C-1.23001053 51.43930771 -1.22955231 50.28095917 -1.2290802 49.08750916 C-1.22607509 46.65118376 -1.21824145 44.21485999 -1.20581055 41.77856445 C-1.18757103 38.07691533 -1.18530116 34.37551751 -1.18554688 30.67382812 C-1.18062971 28.2942687 -1.17480052 25.91471095 -1.16796875 23.53515625 C-1.16685593 22.44211685 -1.1657431 21.34907745 -1.16459656 20.22291565 C-1.12325905 13.43243896 -0.73107567 6.75127335 0 0 Z " fill="#284F9F" transform="translate(147,466)"/>
<path d="M0 0 C1.66611905 -0.042721 3.33382885 -0.04063832 5 0 C6 1 6 1 6.12025452 3.66383362 C6.1169236 5.4458744 6.1169236 5.4458744 6.11352539 7.26391602 C6.11367142 7.91755127 6.11381744 8.57118652 6.1139679 9.24462891 C6.11326883 11.41442128 6.10547678 13.58412879 6.09765625 15.75390625 C6.09579205 17.25463311 6.09436816 18.75536057 6.09336853 20.25608826 C6.08954352 24.21318226 6.0797134 28.17023978 6.06866455 32.12731934 C6.05845006 36.16234849 6.05387083 40.19738353 6.04882812 44.23242188 C6.03809111 52.15496469 6.0210149 60.07747781 6 68 C2.28125 69.1171875 2.28125 69.1171875 -0.25 68.0625 C-0.8275 67.711875 -1.405 67.36125 -2 67 C-0.02 67 1.96 67 4 67 C4 45.22 4 23.44 4 1 C2.68 0.67 1.36 0.34 0 0 Z " fill="#0A3A9A" transform="translate(336,395)"/>
<path d="M0 0 C5.28 0 10.56 0 16 0 C16 13.2 16 26.4 16 40 C13.50663789 36.25995683 13.74518772 33.37438391 13.8046875 29.05078125 C13.8075174 28.27816452 13.81034729 27.50554779 13.81326294 26.70951843 C13.82445122 24.24368757 13.84955297 21.77822094 13.875 19.3125 C13.88503157 17.63997921 13.89415711 15.96745272 13.90234375 14.29492188 C13.92438608 10.19647441 13.95890637 6.09829894 14 2 C9.71 2 5.42 2 1 2 C1 14.54 1 27.08 1 40 C0.67 40 0.34 40 0 40 C0 26.8 0 13.6 0 0 Z " fill="#0A3594" transform="translate(485,628)"/>
<path d="M0 0 C4.875 4.625 4.875 4.625 6 8 C6.66 8 7.32 8 8 8 C9.5234375 9.73046875 9.5234375 9.73046875 11.375 12.1875 C21.19500667 24.73528631 32.68202489 35.82252687 44 47 C43.01 47.33 42.02 47.66 41 48 C38.00292183 45.05226582 35.01239506 42.09808792 32.02783203 39.13769531 C31.01106601 38.13100272 29.99251438 37.12611034 28.97216797 36.12304688 C27.50798782 34.68305629 26.05029795 33.23676744 24.59375 31.7890625 C23.71396484 30.91975098 22.83417969 30.05043945 21.92773438 29.15478516 C20 27 20 27 20 25 C19.34 25 18.68 25 18 25 C16.54340023 23.38617052 15.15951049 21.70636784 13.8125 20 C10.44447221 15.78453296 7.01080557 11.67399581 3.41015625 7.65625 C1.13184671 4.98034073 0 3.58599008 0 0 Z " fill="#284E9E" transform="translate(221,723)"/>
<path d="M0 0 C4.56294053 0.86423988 7.11705211 3.56092098 10.375 6.6875 C10.92671875 7.20505859 11.4784375 7.72261719 12.046875 8.25585938 C13.71093361 9.82421509 15.35680263 11.40982469 17 13 C17.57782227 13.54865723 18.15564453 14.09731445 18.75097656 14.66259766 C20.20648421 16.06896163 21.60827443 17.53048917 23 19 C23 19.66 23 20.32 23 21 C23.66 21 24.32 21 25 21 C26.33984375 22.29296875 26.33984375 22.29296875 27.9375 24.1875 C28.85789062 25.27224609 28.85789062 25.27224609 29.796875 26.37890625 C30.52390625 27.24386719 31.2509375 28.10882813 32 29 C32.92088704 30.0724637 33.842823 31.14402734 34.765625 32.21484375 C35.73991846 33.35127527 36.71387676 34.48799422 37.6875 35.625 C38.1508374 36.16278076 38.6141748 36.70056152 39.09155273 37.25463867 C42.00915236 40.68639899 44.74893946 44.08939848 47 48 C46.67 48.99 46.34 49.98 46 51 C45.31035156 50.10539062 44.62070312 49.21078125 43.91015625 48.2890625 C38.69875508 41.57152448 33.42690933 35.07329813 27.58203125 28.890625 C26 27 26 27 26 25 C25.34 25 24.68 25 24 25 C22.765625 23.7421875 22.765625 23.7421875 21.25 21.875 C16.04124391 15.7282264 10.24160412 10.15647143 4.51464844 4.4987793 C3.0044687 3.00442188 1.50102329 1.50354932 0 0 Z " fill="#284D9C" transform="translate(758,235)"/>
<path d="M0 0 C3.5680108 1.18933693 3.68594658 1.73228485 5.3125 4.9609375 C5.74328857 5.81244385 6.17407715 6.6639502 6.61791992 7.54125977 C7.07400635 8.47639404 7.53009277 9.41152832 8 10.375 C8.47477783 11.33784912 8.94955566 12.30069824 9.4387207 13.29272461 C13.30097445 21.26769841 16.81079949 29.37255917 20.1875 37.5625 C20.66896484 38.72120605 21.15042969 39.87991211 21.64648438 41.07373047 C22.08669922 42.16443848 22.52691406 43.25514648 22.98046875 44.37890625 C23.37129639 45.3438501 23.76212402 46.30879395 24.16479492 47.30297852 C25.0095814 50.03094 25.16658004 52.16427288 25 55 C22.11470323 51.63241022 20.75232899 48.00153578 19.3125 43.875 C14.63736652 31.00129329 9.10529262 18.56246668 2.43798828 6.59350586 C0 2.19223079 0 2.19223079 0 0 Z " fill="#274E9D" transform="translate(832,328)"/>
<path d="M0 0 C1.14680101 3.44040303 0.87124738 4.00270384 -0.43359375 7.23046875 C-0.72032959 7.95387451 -1.00706543 8.67728027 -1.30249023 9.42260742 C-1.67704346 10.33502197 -2.05159668 11.24743652 -2.4375 12.1875 C-3.613125 15.095625 -4.78875 18.00375 -6 21 C6.54 21 19.08 21 32 21 C32.495 21.99 32.495 21.99 33 23 C19.14 23 5.28 23 -9 23 C-3 6 -3 6 0 0 Z " fill="#D8D7FC" transform="translate(470,435)"/>
<path d="M0 0 C3.56444672 0.57438066 6.27677926 1.48964808 9.4140625 3.265625 C10.2491333 3.73758301 11.0842041 4.20954102 11.94458008 4.69580078 C12.82911865 5.20868652 13.71365723 5.72157227 14.625 6.25 C15.99724731 7.04059814 15.99724731 7.04059814 17.3972168 7.84716797 C24.02057385 11.71861891 30.4649669 15.81718136 36.8125 20.125 C37.63637207 20.6809082 38.46024414 21.23681641 39.30908203 21.80957031 C40.05915527 22.32874023 40.80922852 22.84791016 41.58203125 23.3828125 C42.57553589 24.06947998 42.57553589 24.06947998 43.58911133 24.77001953 C44.05470459 25.17591309 44.52029785 25.58180664 45 26 C45 26.66 45 27.32 45 28 C41.56329147 26.74485428 38.8562203 25.31813189 35.9375 23.125 C29.22331786 18.30896258 22.10005132 14.18091354 15 9.96484375 C14.18789063 9.48257324 13.37578125 9.00030273 12.5390625 8.50341797 C10.74467671 7.44093454 8.94752636 6.38311348 7.1484375 5.32861328 C6.23320313 4.78833496 5.31796875 4.24805664 4.375 3.69140625 C3.53710938 3.19970947 2.69921875 2.7080127 1.8359375 2.20141602 C1.23007812 1.80494873 0.62421875 1.40848145 0 1 C0 0.67 0 0.34 0 0 Z " fill="#264D9E" transform="translate(683,182)"/>
<path d="M0 0 C7.50242123 6.11308396 10.60299782 16.77760281 12 26 C12.9076441 40.36630423 12.9076441 40.36630423 10 45 C8.66254232 42.32508464 8.99039222 39.96530624 9.06591797 37.03344727 C9.37072126 24.60830478 7.65654488 15.00733812 1.20703125 4.1796875 C0 2 0 2 0 0 Z " fill="#18419D" transform="translate(726,395)"/>
<path d="M0 0 C0.33 0 0.66 0 1 0 C2.95081277 10.0850053 3.2198271 20.05685604 3.25 30.3125 C3.25902344 31.61856201 3.26804687 32.92462402 3.27734375 34.27026367 C3.27347656 35.49720947 3.26960937 36.72415527 3.265625 37.98828125 C3.26336914 39.09727783 3.26111328 40.20627441 3.25878906 41.34887695 C3 44 3 44 1 46 C0.2819624 30.65576567 -0.14537369 15.36115333 0 0 Z " fill="#2B52A1" transform="translate(876,472)"/>
<path d="M0 0 C1.99331898 2.5178766 3.6420911 5.10493912 5.25 7.875 C8.95427933 13.81290448 13.7244336 18.20169387 20.46875 20.4765625 C26.21638743 21.66511715 32.1478026 21.77901859 38 22 C38 22.33 38 22.66 38 23 C27.52651069 24.44866955 19.9258607 24.0492521 11.15234375 17.7890625 C7.68649945 14.90819736 4.58928621 11.69660154 2 8 C2 7.34 2 6.68 2 6 C1.34 6 0.68 6 0 6 C-0.38218767 4.34385343 -0.71395102 2.67542976 -1 1 C-0.67 0.67 -0.34 0.34 0 0 Z " fill="#D0D4FB" transform="translate(595,666)"/>
<path d="M0 0 C3.41401884 1.48301271 5.69359537 3.43756554 8.375 6 C14.486068 11.62620781 21.17769233 16.29123145 28 21 C27.34 21.66 26.68 22.32 26 23 C20.37350927 19.20673064 14.99748773 15.3229838 9.9609375 10.76953125 C8.57013505 9.51448442 7.15600674 8.285071 5.7265625 7.07421875 C4.99179687 6.45160156 4.25703125 5.82898438 3.5 5.1875 C2.8296875 4.62417969 2.159375 4.06085937 1.46875 3.48046875 C0 2 0 2 0 0 Z " fill="#284D9D" transform="translate(266,772)"/>
<path d="M0 0 C-1.57708172 3.75871144 -3.95529405 6.25305876 -6.75 9.1875 C-10.63720219 13.36680409 -13.90115259 17.53359921 -16.84375 22.41796875 C-17.2253125 22.94003906 -17.606875 23.46210938 -18 24 C-18.66 24 -19.32 24 -20 24 C-18.96733881 17.71797778 -6.39666346 0 0 0 Z " fill="#284F9F" transform="translate(242,258)"/>
<path d="M0 0 C4.9484482 1.76232461 9.38172807 4.36023474 13.9375 6.9375 C18.90856158 9.73907449 23.86757277 12.50381148 29 15 C29 15.33 29 15.66 29 16 C24.68928551 16.34198855 22.25260908 15.3711292 18.515625 13.26171875 C17.49855469 12.68873047 16.48148437 12.11574219 15.43359375 11.52539062 C14.38300781 10.91888672 13.33242188 10.31238281 12.25 9.6875 C10.65091797 8.79514648 10.65091797 8.79514648 9.01953125 7.88476562 C1.12886017 3.38658052 1.12886017 3.38658052 0 0 Z " fill="#294D9E" transform="translate(323,814)"/>
<path d="M0 0 C4.753923 0.45358531 7.48292944 2.68910009 10.9375 5.75 C11.93652344 6.61109375 12.93554688 7.4721875 13.96484375 8.359375 C14.45968262 8.79443359 14.95452148 9.22949219 15.46435547 9.67773438 C17.04949276 11.04261571 18.68009417 12.33782565 20.31640625 13.640625 C23 16 23 16 24 19 C20.19514636 17.36934844 17.38215398 14.92774822 14.25 12.25 C10.0547227 8.68633213 5.80175053 5.26832914 1.328125 2.05859375 C0.88984375 1.70925781 0.4515625 1.35992187 0 1 C0 0.67 0 0.34 0 0 Z " fill="#264D9D" transform="translate(729,211)"/>
<path d="M0 0 C5.28 0 10.56 0 16 0 C15.67 0.99 15.34 1.98 15 3 C8.07 2.505 8.07 2.505 1 2 C0.9175 3.2375 0.835 4.475 0.75 5.75 C0.36524541 8.98882964 0.09975997 9.87907883 -2.0625 12.5 C-2.701875 12.995 -3.34125 13.49 -4 14 C-3.36843005 8.94744036 -1.86540627 4.70406799 0 0 Z " fill="#0E3897" transform="translate(310,605)"/>
<path d="M0 0 C0.66 0 1.32 0 2 0 C3.20571943 2.90946313 4.38628225 5.82849916 5.5625 8.75 C5.90474609 9.575 6.24699219 10.4 6.59960938 11.25 C6.91865234 12.04921875 7.23769531 12.8484375 7.56640625 13.671875 C7.86490479 14.4050293 8.16340332 15.13818359 8.47094727 15.89355469 C9.07674986 18.30558274 8.7935828 19.67215713 8 22 C7.57847656 20.92878906 7.15695312 19.85757813 6.72265625 18.75390625 C6.16940681 17.35671698 5.61601398 15.95958449 5.0625 14.5625 C4.78470703 13.85544922 4.50691406 13.14839844 4.22070312 12.41992188 C3.03777966 8.95326119 3.03777966 8.95326119 1 6 C0.01 7.98 -0.98 9.96 -2 12 C-3.15957207 8.52128379 -2.77456651 7.65780355 -1.5625 4.3125 C-1.13130859 3.10013672 -1.13130859 3.10013672 -0.69140625 1.86328125 C-0.46324219 1.24839844 -0.23507812 0.63351562 0 0 Z " fill="#C9CEF8" transform="translate(317,630)"/>
<path d="M0 0 C0 3.91225923 -1.33326228 5.10218661 -3.6875 8.1875 C-7.04673456 12.67443497 -10.10405302 17.20358781 -13 22 C-13.8669984 19.6054646 -14.21444467 18.47787354 -13.15136719 16.10888672 C-12.70438477 15.47225098 -12.25740234 14.83561523 -11.796875 14.1796875 C-11.31089844 13.47972656 -10.82492188 12.77976562 -10.32421875 12.05859375 C-9.54498047 10.97771484 -9.54498047 10.97771484 -8.75 9.875 C-7.99396484 8.78251953 -7.99396484 8.78251953 -7.22265625 7.66796875 C-4.94028917 4.42712731 -3.34532847 2.23021898 0 0 Z " fill="#23499A" transform="translate(216,289)"/>
<path d="M0 0 C2.97 0 5.94 0 9 0 C9 5.28 9 10.56 9 16 C5.37 15.67 1.74 15.34 -2 15 C-2 14.67 -2 14.34 -2 14 C0.97 14 3.94 14 7 14 C7 10.04 7 6.08 7 2 C4.36 2 1.72 2 -1 2 C-0.67 1.34 -0.34 0.68 0 0 Z " fill="#143995" transform="translate(691,627)"/>
<path d="M0 0 C5.72514527 0.53414627 10.23868689 2.16048662 15.4375 4.5625 C16.16904297 4.89185547 16.90058594 5.22121094 17.65429688 5.56054688 C19.43979399 6.36577106 21.22042155 7.18177846 23 8 C23 8.66 23 9.32 23 10 C17.27993553 8.45276945 12.00445431 6.69353464 6.76171875 3.91796875 C4.56950212 2.77568293 2.31306023 1.86739759 0 1 C0 0.67 0 0.34 0 0 Z " fill="#2A51A1" transform="translate(645,165)"/>
<path d="M0 0 C0 3.69418201 -1.28179295 5.77836178 -3 9 C-3.66 9 -4.32 9 -5 9 C-5.66 14.28 -6.32 19.56 -7 25 C-7.33 25 -7.66 25 -8 25 C-8.66120664 16.44839412 -7.85361489 10.20522549 -3 3 C-2.03223357 1.96877348 -1.04185903 0.95631049 0 0 Z " fill="#143997" transform="translate(603,636)"/>
<path d="M0 0 C4.15476105 1.38492035 5.49881044 4.27948168 7.75 7.8125 C8.17410156 8.44220703 8.59820313 9.07191406 9.03515625 9.72070312 C12.093667 14.46787047 12.093667 14.46787047 11.61035156 17.21362305 C11.40893555 17.80312744 11.20751953 18.39263184 11 19 C9.15929441 16.21312902 7.32871822 13.41974873 5.5 10.625 C4.97535156 9.8309375 4.45070313 9.036875 3.91015625 8.21875 C3.41386719 7.45820313 2.91757812 6.69765625 2.40625 5.9140625 C1.94541016 5.2123291 1.48457031 4.5105957 1.00976562 3.78759766 C0 2 0 2 0 0 Z " fill="#264C9B" transform="translate(815,300)"/>
<path d="M0 0 C0.54398437 0.24105469 1.08796875 0.48210937 1.6484375 0.73046875 C0.0275162 1.9027956 -1.59843083 3.06817645 -3.2265625 4.23046875 C-4.13148438 4.88015625 -5.03640625 5.52984375 -5.96875 6.19921875 C-8.3515625 7.73046875 -8.3515625 7.73046875 -10.3515625 7.73046875 C-10.3515625 8.39046875 -10.3515625 9.05046875 -10.3515625 9.73046875 C-12.0015625 10.39046875 -13.6515625 11.05046875 -15.3515625 11.73046875 C-13.82233353 7.74547797 -11.37207022 5.9077043 -7.9765625 3.41796875 C-7.02007812 2.69996094 -6.06359375 1.98195312 -5.078125 1.2421875 C-2.3515625 -0.26953125 -2.3515625 -0.26953125 0 0 Z " fill="#284F9F" transform="translate(306.3515625,202.26953125)"/>
<path d="M0 0 C1.20366211 0.00483398 1.20366211 0.00483398 2.43164062 0.00976562 C3.68170898 0.02233398 3.68170898 0.02233398 4.95703125 0.03515625 C6.22450195 0.04192383 6.22450195 0.04192383 7.51757812 0.04882812 C9.6015928 0.06060222 11.68557102 0.07853735 13.76953125 0.09765625 C13.76953125 0.42765625 13.76953125 0.75765625 13.76953125 1.09765625 C5.37259865 2.47058538 -2.7167409 3.41040544 -11.23046875 3.09765625 C-7.4131666 1.12318962 -4.32027601 -0.03064026 0 0 Z " fill="#1E4799" transform="translate(466.23046875,141.90234375)"/>
<path d="M0 0 C2.60649468 2.60649468 3.44024981 5.53134321 4.625 8.9375 C4.85445312 9.57107422 5.08390625 10.20464844 5.3203125 10.85742188 C6.32801716 13.70958596 7 15.95183307 7 19 C6.34 19 5.68 19 5 19 C4.32942113 17.2097939 3.6636531 15.41778511 3 13.625 C2.443125 12.12839844 2.443125 12.12839844 1.875 10.6015625 C1 8 1 8 1 6 C0.34 5.67 -0.32 5.34 -1 5 C-0.67 3.35 -0.34 1.7 0 0 Z " fill="#2A4F9D" transform="translate(165,618)"/>
<path d="M0 0 C4.95 0 9.9 0 15 0 C14.67 2.64 14.34 5.28 14 8 C13.67 8 13.34 8 13 8 C13 6.02 13 4.04 13 2 C8.71 2 4.42 2 0 2 C0 1.34 0 0.68 0 0 Z " fill="#0D3B9B" transform="translate(666,628)"/>
<path d="M0 0 C0.33 0 0.66 0 1 0 C1.3383344 2.37438249 1.67079002 4.74934959 2 7.125 C2.14308594 8.12273438 2.14308594 8.12273438 2.2890625 9.140625 C2.83611453 13.12628981 3.10022182 16.97859938 3 21 C2.8453125 20.0409375 2.8453125 20.0409375 2.6875 19.0625 C2.460625 18.381875 2.23375 17.70125 2 17 C1.01 16.67 0.02 16.34 -1 16 C-0.67 10.72 -0.34 5.44 0 0 Z " fill="#214796" transform="translate(149,543)"/>
<path d="M0 0 C0 0.66 0 1.32 0 2 C-2.484375 3.76171875 -2.484375 3.76171875 -5.75 5.6875 C-6.81734375 6.33074219 -7.8846875 6.97398437 -8.984375 7.63671875 C-12 9 -12 9 -14.390625 8.70703125 C-14.92171875 8.47371094 -15.4528125 8.24039063 -16 8 C-13.71125827 6.66141476 -11.41930344 5.32898986 -9.125 4 C-8.47402344 3.6184375 -7.82304688 3.236875 -7.15234375 2.84375 C-2.2265625 0 -2.2265625 0 0 0 Z " fill="#2A4E9D" transform="translate(700,815)"/>
<path d="M0 0 C0.33 0.99 0.66 1.98 1 3 C-0.3333826 5.36881909 -1.68068973 7.48617267 -3.25 9.6875 C-3.65863281 10.29400391 -4.06726563 10.90050781 -4.48828125 11.52539062 C-5.703125 13.26171875 -5.703125 13.26171875 -8 16 C-8.99 16 -9.98 16 -11 16 C-7.37 10.72 -3.74 5.44 0 0 Z " fill="#244A99" transform="translate(820,697)"/>
<path d="M0 0 C4.62400376 4.09046487 8.24472701 9.48945402 11 15 C9.234375 14.8359375 9.234375 14.8359375 7 14 C5.078125 11.6015625 5.078125 11.6015625 3.25 8.625 C2.63640625 7.64789062 2.0228125 6.67078125 1.390625 5.6640625 C0 3 0 3 0 0 Z " fill="#284E9E" transform="translate(202,696)"/>
<path d="M0 0 C-2.45334555 1.36396462 -4.91191234 2.71634169 -7.375 4.0625 C-8.42300781 4.64741211 -8.42300781 4.64741211 -9.4921875 5.24414062 C-11.29610184 6.22415178 -13.14583482 7.11875071 -15 8 C-15.66 7.67 -16.32 7.34 -17 7 C-14.64161518 4.37098086 -12.19877023 2.85350658 -9.0625 1.25 C-8.20785156 0.80140625 -7.35320312 0.3528125 -6.47265625 -0.109375 C-3.6966492 -1.10926379 -2.73897999 -0.82470147 0 0 Z " fill="#274E9E" transform="translate(355,176)"/>
<path d="M0 0 C-5.445 4.455 -5.445 4.455 -11 9 C-11.66 8.67 -12.32 8.34 -13 8 C-5.5 -1.375 -5.5 -1.375 0 0 Z " fill="#274E9F" transform="translate(290,216)"/>
<path d="M0 0 C-1.29364853 3.8809456 -2.90703342 4.56689295 -6.3125 6.75 C-7.27800781 7.38421875 -8.24351562 8.0184375 -9.23828125 8.671875 C-12 10 -12 10 -14.35546875 9.703125 C-14.89816406 9.47109375 -15.44085937 9.2390625 -16 9 C-13.71180854 7.49445366 -11.41978831 5.99542957 -9.125 4.5 C-8.47402344 4.07074219 -7.82304688 3.64148438 -7.15234375 3.19921875 C-2.2265625 0 -2.2265625 0 0 0 Z " fill="#244A9B" transform="translate(717,804)"/>
<path d="M0 0 C0 0.33 0 0.66 0 1 C-2.31 1.33 -4.62 1.66 -7 2 C-6.67 2.66 -6.34 3.32 -6 4 C-8.31 4 -10.62 4 -13 4 C-13 3.67 -13 3.34 -13 3 C-15.31 2.67 -17.62 2.34 -20 2 C-20 1.67 -20 1.34 -20 1 C-13.30386804 0.202163 -6.74233419 -0.12910853 0 0 Z " fill="#4064B4" transform="translate(490,140)"/>
<path d="M0 0 C3.39540434 1.13180145 4.15357852 2.10357199 6.375 4.8125 C9.02361939 7.94473143 11.66539533 10.57483296 15 13 C14.67 13.66 14.34 14.32 14 15 C9.15020839 10.83951887 4.35555198 6.68221838 0 2 C0 1.34 0 0.68 0 0 Z " fill="#BAC4F0" transform="translate(265,735)"/>
<path d="M0 0 C0.33 0 0.66 0 1 0 C1.20674944 5.78898419 0.59162079 10.42932723 -1 16 C-1.66 16 -2.32 16 -3 16 C-2.52013969 10.43109483 -1.70084819 5.32932432 0 0 Z " fill="#264C9C" transform="translate(869,578)"/>
<path d="M0 0 C2.18742014 3.2811302 2.54442806 5.33084356 3.125 9.1875 C3.37636719 10.81751953 3.37636719 10.81751953 3.6328125 12.48046875 C3.75398437 13.31191406 3.87515625 14.14335938 4 15 C3.01 14.67 2.02 14.34 1 14 C-0.19493974 10.96826719 -0.10493955 7.97540573 -0.0625 4.75 C-0.05347656 3.85796875 -0.04445312 2.9659375 -0.03515625 2.046875 C-0.02355469 1.37140625 -0.01195312 0.6959375 0 0 Z " fill="#254D9E" transform="translate(153,571)"/>
<path d="M0 0 C0.66 0 1.32 0 2 0 C3.03041513 1.95330868 4.0490893 3.91281528 5.0625 5.875 C5.63097656 6.96554687 6.19945312 8.05609375 6.78515625 9.1796875 C7.18605469 10.11039063 7.58695313 11.04109375 8 12 C7.67 12.66 7.34 13.32 7 14 C4.66714622 11.86099367 3.2131241 9.83344647 1.8125 7 C1.46832031 6.319375 1.12414062 5.63875 0.76953125 4.9375 C0 3 0 3 0 0 Z " fill="#284D9B" transform="translate(182,661)"/>
<path d="M0 0 C0.99 0.33 1.98 0.66 3 1 C1.37660195 2.70884005 -0.29319053 4.37446717 -2 6 C-2.66 6 -3.32 6 -4 6 C-4 6.66 -4 7.32 -4 8 C-4.66 8 -5.32 8 -6 8 C-6 8.66 -6 9.32 -6 10 C-6.66 9.67 -7.32 9.34 -8 9 C-5.91186327 5.04353041 -3.77208713 2.45185663 0 0 Z " fill="#254D9E" transform="translate(266,232)"/>
<path d="M0 0 C0.66 0 1.32 0 2 0 C0.50829734 4.9723422 -1.60457417 9.41845739 -4 14 C-4.33 14 -4.66 14 -5 14 C-5.28883414 9.93465943 -4.57875609 7.66941645 -2.5 4.1875 C-2.0359375 3.39730469 -1.571875 2.60710937 -1.09375 1.79296875 C-0.55234375 0.90544922 -0.55234375 0.90544922 0 0 Z " fill="#284D9C" transform="translate(185,337)"/>
<path d="M0 0 C0.8971875 1.0209375 0.8971875 1.0209375 1.8125 2.0625 C-0.10481918 1.94794319 -2.0213675 1.82043742 -3.9375 1.6875 C-5.00484375 1.61789063 -6.0721875 1.54828125 -7.171875 1.4765625 C-9.98956432 1.0896777 -11.7705366 0.50563834 -14.1875 -0.9375 C-4.19187637 -2.54800328 -4.19187637 -2.54800328 0 0 Z " fill="#214B9C" transform="translate(582.1875,145.9375)"/>
<path d="M0 0 C4.04420651 1.77945087 7.46078487 4.39529673 11 7 C9.1640625 7.60546875 9.1640625 7.60546875 7 8 C3.58658047 5.80565887 1.48985569 3.79235994 0 0 Z " fill="#254B9B" transform="translate(299,798)"/>
<path d="M0 0 C0.33 0 0.66 0 1 0 C1.02715383 1.74991334 1.04646551 3.49994945 1.0625 5.25 C1.07410156 6.22453125 1.08570313 7.1990625 1.09765625 8.203125 C1.01195577 10.65758678 0.70706066 12.66168914 0 15 C-0.66 15 -1.32 15 -2 15 C-1.03644647 4.44191344 -1.03644647 4.44191344 0 0 Z " fill="#274C9A" transform="translate(872,562)"/>
<path d="M0 0 C0.99 0 1.98 0 3 0 C3.103125 0.721875 3.20625 1.44375 3.3125 2.1875 C3.87460886 5.09552566 3.87460886 5.09552566 5.625 7.6875 C6.07875 8.450625 6.5325 9.21375 7 10 C6.67 10.66 6.34 11.32 6 12 C3.37591634 9.62582907 1.61386598 7.15088121 0 4 C0 2.68 0 1.36 0 0 Z " fill="#2E54A3" transform="translate(827,317)"/>
<path d="M0 0 C0 3.31934673 -0.43709146 4.02487607 -2.3125 6.625 C-2.95638672 7.54152344 -2.95638672 7.54152344 -3.61328125 8.4765625 C-5 10 -5 10 -8 11 C-6.46457536 6.52167812 -4.39145948 2.19572974 0 0 Z " fill="#2950A0" transform="translate(216,289)"/>
<path d="M0 0 C0.33 0 0.66 0 1 0 C1.33 4.95 1.66 9.9 2 15 C1.01 15.495 1.01 15.495 0 16 C-0.82622671 10.39436958 -1.06795656 5.57710648 0 0 Z " fill="#3458A6" transform="translate(875,453)"/>
<path d="M0 0 C0 0.66 0 1.32 0 2 C-2.99480917 2.8723412 -5.63575911 3.10829766 -8.75 3.0625 C-9.54921875 3.05347656 -10.3484375 3.04445313 -11.171875 3.03515625 C-11.77515625 3.02355469 -12.3784375 3.01195312 -13 3 C-8.72352613 0.14901742 -5.0682068 -0.14480591 0 0 Z " fill="#264B9D" transform="translate(601,856)"/>
<path d="M0 0 C0 2.97 0 5.94 0 9 C-0.33 8.01 -0.66 7.02 -1 6 C-1.66 6 -2.32 6 -3 6 C-3 5.01 -3 4.02 -3 3 C-4.65 2.67 -6.3 2.34 -8 2 C-8 1.67 -8 1.34 -8 1 C-2.25 0 -2.25 0 0 0 Z " fill="#0E3593" transform="translate(587,673)"/>
<path d="M0 0 C1.04449911 3.13349732 0.93423645 3.98968256 0 7 C-0.66 7 -1.32 7 -2 7 C-2.99 10.465 -2.99 10.465 -4 14 C-5.2277183 10.31684509 -4.6026666 9.37044582 -3.125 5.875 C-2.75632812 4.98554688 -2.38765625 4.09609375 -2.0078125 3.1796875 C-1 1 -1 1 0 0 Z " fill="#113897" transform="translate(427,471)"/>
<path d="M0 0 C0.65234375 1.734375 0.65234375 1.734375 1 4 C0.00390625 6.140625 0.00390625 6.140625 -1.4375 8.25 C-1.91058594 8.95640625 -2.38367188 9.6628125 -2.87109375 10.390625 C-3.24363281 10.92171875 -3.61617187 11.4528125 -4 12 C-4.33 11.34 -4.66 10.68 -5 10 C-4.00390625 7.6171875 -4.00390625 7.6171875 -2.5625 4.875 C-1.85287109 3.50988281 -1.85287109 3.50988281 -1.12890625 2.1171875 C-0.75636719 1.41851563 -0.38382813 0.71984375 0 0 Z " fill="#224999" transform="translate(846,649)"/>
<path d="M0 0 C0.33 0 0.66 0 1 0 C0.14285714 8.57142857 0.14285714 8.57142857 -2 12 C-2.66 12 -3.32 12 -4 12 C-3.33501617 7.61110675 -1.81242323 4.0188515 0 0 Z " fill="#284D9C" transform="translate(852,634)"/>
<path d="M0 0 C0.66 0 1.32 0 2 0 C0.74194623 4.50802601 -0.90407165 7.4912812 -4 11 C-3.49357808 6.64477147 -2.61588503 3.55760365 0 0 Z " fill="#274D9C" transform="translate(192,324)"/>
<path d="M0 0 C0.33 0.99 0.66 1.98 1 3 C-0.21484375 4.82421875 -0.21484375 4.82421875 -1.9375 6.6875 C-2.50339844 7.31011719 -3.06929687 7.93273437 -3.65234375 8.57421875 C-4.09707031 9.04472656 -4.54179688 9.51523437 -5 10 C-5.66 9.67 -6.32 9.34 -7 9 C-4.69 6.03 -2.38 3.06 0 0 Z " fill="#234897" transform="translate(807,716)"/>
<path d="M0 0 C1.0625 1.8125 1.0625 1.8125 2 4 C1.67 4.99 1.34 5.98 1 7 C0.67 6.67 0.34 6.34 0 6 C-0.66 7.32 -1.32 8.64 -2 10 C-3.39195915 5.82412255 -1.82323219 3.86525224 0 0 Z " fill="#D4D6FA" transform="translate(482,403)"/>
<path d="M0 0 C-1.34882814 4.04648443 -3.34826069 4.95502599 -7 7 C-7.99 6.67 -8.98 6.34 -10 6 C-8.71283353 4.99421411 -7.42011342 3.99553202 -6.125 3 C-5.40570312 2.443125 -4.68640625 1.88625 -3.9453125 1.3125 C-2 0 -2 0 0 0 Z " fill="#244A9B" transform="translate(735,791)"/>
<path d="M0 0 C0.66 0 1.32 0 2 0 C3.7578125 5.95703125 3.7578125 5.95703125 4 8 C3.01 9.485 3.01 9.485 2 11 C0.80712589 7.12315913 0 4.08378077 0 0 Z " fill="#3256A2" transform="translate(155,586)"/>
<path d="M0 0 C3.25985541 4.34647388 3.34252339 4.7480032 2.6875 9.75 C2.56761719 10.73484375 2.44773438 11.7196875 2.32421875 12.734375 C2.21722656 13.48203125 2.11023438 14.2296875 2 15 C1.67 15 1.34 15 1 15 C0.67 10.05 0.34 5.1 0 0 Z " fill="#4869B5" transform="translate(147,536)"/>
<path d="M0 0 C0.66 0.33 1.32 0.66 2 1 C1.3125 2.9375 1.3125 2.9375 0 5 C-2.625 5.75 -2.625 5.75 -5 6 C-3.35 4.02 -1.7 2.04 0 0 Z " fill="#C0C7FB" transform="translate(374,338)"/>
<path d="M0 0 C0.66 1.32 1.32 2.64 2 4 C0.68 4.99 -0.64 5.98 -2 7 C-2.99 6.34 -3.98 5.68 -5 5 C-3.35 3.35 -1.7 1.7 0 0 Z " fill="#335CAD" transform="translate(258,239)"/>
<path d="M0 0 C1.32 0.33 2.64 0.66 4 1 C1.69 2.65 -0.62 4.3 -3 6 C-3.66 5.67 -4.32 5.34 -5 5 C-2.75 2.4375 -2.75 2.4375 0 0 Z " fill="#264D9E" transform="translate(316,194)"/>
<path d="M0 0 C-1.28650706 0.69710731 -2.57940665 1.38242876 -3.875 2.0625 C-4.95394531 2.63677734 -4.95394531 2.63677734 -6.0546875 3.22265625 C-6.69664062 3.47917969 -7.33859375 3.73570312 -8 4 C-8.66 3.67 -9.32 3.34 -10 3 C-9 1 -9 1 -6.6875 -0.1875 C-3.80924224 -1.05767095 -2.78618635 -0.83763812 0 0 Z " fill="#244C9C" transform="translate(366,171)"/>
<path d="M0 0 C2.475 0.495 2.475 0.495 5 1 C5.33 1.99 5.66 2.98 6 4 C4.02 4.99 4.02 4.99 2 6 C2 5.01 2 4.02 2 3 C1.34 2.67 0.68 2.34 0 2 C0 1.34 0 0.68 0 0 Z " fill="#3055A4" transform="translate(358,833)"/>
<path d="M0 0 C3.40320742 1.01176437 4.75725331 1.64843582 6.8125 4.625 C7.204375 5.40875 7.59625 6.1925 8 7 C5.05043472 5.63055898 2.47531189 4.12169591 0 2 C0 1.34 0 0.68 0 0 Z " fill="#2E53A3" transform="translate(293,794)"/>
<path d="M0 0 C1.60080151 4.00200378 0.29279692 7.04556236 -1 11 C-1.33 11 -1.66 11 -2 11 C-2.25 3.375 -2.25 3.375 0 0 Z " fill="#214897" transform="translate(158,410)"/>
<path d="M0 0 C7.75 0.875 7.75 0.875 10 2 C10 2.66 10 3.32 10 4 C6.44219804 3.39009109 3.3171411 2.4216319 0 1 C0 0.67 0 0.34 0 0 Z " fill="#264E9F" transform="translate(634,161)"/>
<path d="M0 0 C1.89213369 2.38573379 3.02391783 4.07175348 4 7 C3.01 7.495 3.01 7.495 2 8 C2 7.34 2 6.68 2 6 C1.34 6 0.68 6 0 6 C-0.38218767 4.34385343 -0.71395102 2.67542976 -1 1 C-0.67 0.67 -0.34 0.34 0 0 Z " fill="#BBC3F8" transform="translate(595,666)"/>
<path d="M0 0 C-2.55068845 2.35448165 -3.71017358 2.98327924 -7.25 3.1875 C-8.1575 3.125625 -9.065 3.06375 -10 3 C-7.28464405 0.28464405 -3.67870689 -1.83935344 0 0 Z " fill="#C9D0FA" transform="translate(656,562)"/>
<path d="M0 0 C0.99 0.33 1.98 0.66 3 1 C3.33 3.31 3.66 5.62 4 8 C3.34 7.01 2.68 6.02 2 5 C1.01 5 0.02 5 -1 5 C-0.67 3.35 -0.34 1.7 0 0 Z " fill="#BAC4FB" transform="translate(482,408)"/>
<path d="M0 0 C-2.90092502 1.93395001 -3.89674737 2.30131941 -7.1875 2.625 C-8.445625 2.74875 -9.70375 2.8725 -11 3 C-8.21756596 -1.17365106 -4.53441502 -0.22300402 0 0 Z " fill="#1E4798" transform="translate(428,150)"/>
<path d="M0 0 C4.29 0.33 8.58 0.66 13 1 C13 1.33 13 1.66 13 2 C11.58696762 2.2506019 10.16920526 2.47461921 8.75 2.6875 C7.96109375 2.81511719 7.1721875 2.94273437 6.359375 3.07421875 C4 3 4 3 0 0 Z " fill="#3F62AD" transform="translate(554,142)"/>
<path d="M0 0 C0.66 0.33 1.32 0.66 2 1 C0.35 2.65 -1.3 4.3 -3 6 C-3.99 5.67 -4.98 5.34 -6 5 C-4.02 3.35 -2.04 1.7 0 0 Z " fill="#254B9C" transform="translate(752,776)"/>
<path d="M0 0 C1.04449911 3.13349732 0.93423645 3.98968256 0 7 C-0.66 7 -1.32 7 -2 7 C-2.33 7.66 -2.66 8.32 -3 9 C-2.5020163 5.26512223 -2.12508244 3.18762365 0 0 Z " fill="#143C9A" transform="translate(444,428)"/>
<path d="M0 0 C0.33 0.99 0.66 1.98 1 3 C-1.31 4.32 -3.62 5.64 -6 7 C-5.8125 5.1875 -5.8125 5.1875 -5 3 C-2.4375 1.25 -2.4375 1.25 0 0 Z " fill="#224B9C" transform="translate(250,249)"/>
<path d="M0 0 C6.52307692 -0.36923077 6.52307692 -0.36923077 8.9375 1.5 C9.288125 1.995 9.63875 2.49 10 3 C2.25 2.25 2.25 2.25 0 0 Z " fill="#214899" transform="translate(600,151)"/>
<path d="M0 0 C2.31 0.33 4.62 0.66 7 1 C7 1.33 7 1.66 7 2 C4.69 1.67 2.38 1.34 0 1 C0 0.67 0 0.34 0 0 Z " fill="#385AA5" transform="translate(401,853)"/>
<path d="M0 0 C1.98 0 3.96 0 6 0 C6 0.33 6 0.66 6 1 C4.02 1.33 2.04 1.66 0 2 C0 1.34 0 0.68 0 0 Z " fill="#395BA5" transform="translate(537,868)"/>
<path d="M0 0 C1.65 0 3.3 0 5 0 C4.67 0.66 4.34 1.32 4 2 C2.68 1.34 1.36 0.68 0 0 Z " fill="#3859A4" transform="translate(436,862)"/>
<path d="M0 0 C1.32 0.33 2.64 0.66 4 1 C2.02 1.99 2.02 1.99 0 3 C0 2.01 0 1.02 0 0 Z " fill="#395AA6" transform="translate(432,861)"/>
<path d="M0 0 C0.99 0.99 1.98 1.98 3 3 C2.01 3 1.02 3 0 3 C0 2.01 0 1.02 0 0 Z " fill="#3A5CA8" transform="translate(225,733)"/>
<path d="M0 0 C1.65 0 3.3 0 5 0 C5 0.33 5 0.66 5 1 C3.35 1 1.7 1 0 1 C0 0.67 0 0.34 0 0 Z " fill="#385AA4" transform="translate(470,867)"/>
<path d="M0 0 C0.99 0.33 1.98 0.66 3 1 C2.01 1.33 1.02 1.66 0 2 C0 1.34 0 0.68 0 0 Z " fill="#355AA5" transform="translate(312,812)"/>
<path d="M0 0 C0 3 0 3 0 3 Z " fill="#385AA7" transform="translate(202,701)"/>
<path d="M0 0 C0.99 0.495 0.99 0.495 2 1 C1.67 1.66 1.34 2.32 1 3 C0.67 2.01 0.34 1.02 0 0 Z " fill="#395BA6" transform="translate(200,698)"/>
<path d="M0 0 C0.66 0 1.32 0 2 0 C2 0.66 2 1.32 2 2 C1.34 2 0.68 2 0 2 C0 1.34 0 0.68 0 0 Z " fill="#3A5DA8" transform="translate(176,656)"/>
<path d="M0 0 C4 1 4 1 4 1 Z " fill="#355AA4" transform="translate(614,152)"/>
<path d="M0 0 C4 1 4 1 4 1 Z " fill="#395DA9" transform="translate(438,144)"/>
<path d="M0 0 C3 1 3 1 3 1 Z " fill="#385BA7" transform="translate(513,869)"/>
<path d="M0 0 C3 1 3 1 3 1 Z " fill="#395BA6" transform="translate(505,869)"/>
<path d="M0 0 C3 1 3 1 3 1 Z " fill="#3A5DA7" transform="translate(497,869)"/>
<path d="M0 0 C3 1 3 1 3 1 Z " fill="#3B5BA8" transform="translate(580,863)"/>
<path d="M0 0 C3 1 3 1 3 1 Z " fill="#3858A5" transform="translate(428,860)"/>
<path d="M0 0 C3 1 3 1 3 1 Z " fill="#365AA5" transform="translate(619,853)"/>
<path d="M0 0 C3 1 3 1 3 1 Z " fill="#3759A5" transform="translate(347,831)"/>
<path d="M0 0 C0.66 0 1.32 0 2 0 C1.67 0.66 1.34 1.32 1 2 C0.67 1.34 0.34 0.68 0 0 Z " fill="#3859A4" transform="translate(315,813)"/>
<path d="M0 0 C0.66 0.66 1.32 1.32 2 2 C1.34 2 0.68 2 0 2 C0 1.34 0 0.68 0 0 Z " fill="#385AA5" transform="translate(281,788)"/>
<path d="" fill="#375CA7" transform="translate(0,0)"/>
<path d="" fill="#3A5CA8" transform="translate(0,0)"/>
<path d="" fill="#3C5EAA" transform="translate(0,0)"/>
<path d="" fill="#3D5FAD" transform="translate(0,0)"/>
<path d="" fill="#3A5DAB" transform="translate(0,0)"/>
<path d="M0 0 C0.33 0.66 0.66 1.32 1 2 C0.34 1.67 -0.32 1.34 -1 1 C-0.67 0.67 -0.34 0.34 0 0 Z " fill="#375CA7" transform="translate(252,240)"/>
<path d="M0 0 C2 1 2 1 2 1 Z " fill="#385CA7" transform="translate(488,869)"/>
<path d="" fill="#385BA5" transform="translate(0,0)"/>
<path d="M0 0 C2 1 2 1 2 1 Z " fill="#3659A4" transform="translate(425,859)"/>
<path d="M0 0 C2 1 2 1 2 1 Z " fill="#3B5CA7" transform="translate(614,855)"/>
<path d="" fill="#395BA5" transform="translate(0,0)"/>
<path d="M0 0 C2 1 2 1 2 1 Z " fill="#3959A4" transform="translate(365,839)"/>
<path d="M0 0 C2 1 2 1 2 1 Z " fill="#375AA5" transform="translate(336,825)"/>
<path d="M0 0 C2 1 2 1 2 1 Z " fill="#395AA6" transform="translate(728,799)"/>
<path d="" fill="#3659A4" transform="translate(0,0)"/>
<path d="M0 0 C2 1 2 1 2 1 Z " fill="#385BA6" transform="translate(272,782)"/>
<path d="M0 0 C2 1 2 1 2 1 Z " fill="#3456A4" transform="translate(806,721)"/>
<path d="" fill="#395BA6" transform="translate(0,0)"/>
<path d="M0 0 C2 1 2 1 2 1 Z " fill="#375BA6" transform="translate(187,678)"/>
<path d="" fill="#385BA8" transform="translate(0,0)"/>
<path d="" fill="#385CA9" transform="translate(0,0)"/>
<path d="" fill="#3B60AB" transform="translate(0,0)"/>
<path d="" fill="#3B5FAC" transform="translate(0,0)"/>
<path d="" fill="#3B60AC" transform="translate(0,0)"/>
<path d="M0 0 C2 1 2 1 2 1 Z " fill="#3D5FAC" transform="translate(144,538)"/>
<path d="" fill="#395FAC" transform="translate(0,0)"/>
<path d="" fill="#3D60AD" transform="translate(0,0)"/>
<path d="" fill="#3F60AB" transform="translate(0,0)"/>
<path d="" fill="#3C61AE" transform="translate(0,0)"/>
<path d="" fill="#3D5FAB" transform="translate(0,0)"/>
<path d="" fill="#3B5FAD" transform="translate(0,0)"/>
<path d="" fill="#3E5FAC" transform="translate(0,0)"/>
<path d="" fill="#3B5FAA" transform="translate(0,0)"/>
<path d="" fill="#395FAA" transform="translate(0,0)"/>
<path d="" fill="#3A5DA7" transform="translate(0,0)"/>
<path d="" fill="#375BA9" transform="translate(0,0)"/>
<path d="" fill="#395FA7" transform="translate(0,0)"/>
<path d="" fill="#3A5FAC" transform="translate(0,0)"/>
<path d="M0 0 C2 1 2 1 2 1 Z " fill="#385CA8" transform="translate(806,282)"/>
<path d="" fill="#355AA7" transform="translate(0,0)"/>
<path d="M0 0 C2 1 2 1 2 1 Z " fill="#385BA5" transform="translate(240,251)"/>
<path d="" fill="#375CA7" transform="translate(0,0)"/>
<path d="M0 0 C2 1 2 1 2 1 Z " fill="#395DA9" transform="translate(345,176)"/>
<path d="M0 0 C2 1 2 1 2 1 Z " fill="#375CA9" transform="translate(357,170)"/>
<path d="M0 0 C2 1 2 1 2 1 Z " fill="#355BA7" transform="translate(662,169)"/>
<path d="M0 0 C2 1 2 1 2 1 Z " fill="#3559A6" transform="translate(659,168)"/>
<path d="M0 0 C2 1 2 1 2 1 Z " fill="#395DAA" transform="translate(434,145)"/>
<path d="M0 0 C2 1 2 1 2 1 Z " fill="#395CA5" transform="translate(582,144)"/>
<path d="M0 0 C2 1 2 1 2 1 Z " fill="#3A5EA7" transform="translate(533,138)"/>
<path d="" fill="#181A1E" transform="translate(0,0)"/>
<path d="" fill="#3758A5" transform="translate(0,0)"/>
<path d="" fill="#3A5BA7" transform="translate(0,0)"/>
<path d="" fill="#3A5BA7" transform="translate(0,0)"/>
<path d="" fill="#385AA2" transform="translate(0,0)"/>
<path d="" fill="#375AA4" transform="translate(0,0)"/>
<path d="" fill="#365BA4" transform="translate(0,0)"/>
<path d="" fill="#395DA5" transform="translate(0,0)"/>
<path d="" fill="#385BA7" transform="translate(0,0)"/>
<path d="" fill="#3A5BA8" transform="translate(0,0)"/>
<path d="" fill="#395DA9" transform="translate(0,0)"/>
<path d="" fill="#395BA6" transform="translate(0,0)"/>
<path d="" fill="#3A58A3" transform="translate(0,0)"/>
<path d="" fill="#385BA5" transform="translate(0,0)"/>
<path d="" fill="#3B5DA9" transform="translate(0,0)"/>
<path d="" fill="#395BA4" transform="translate(0,0)"/>
<path d="" fill="#395BA7" transform="translate(0,0)"/>
<path d="" fill="#3A5CA5" transform="translate(0,0)"/>
<path d="" fill="#3A5DA7" transform="translate(0,0)"/>
<path d="" fill="#395BA6" transform="translate(0,0)"/>
<path d="" fill="#3A5BA7" transform="translate(0,0)"/>
<path d="" fill="#385CA6" transform="translate(0,0)"/>
<path d="" fill="#3758A6" transform="translate(0,0)"/>
<path d="" fill="#3B5AA5" transform="translate(0,0)"/>
<path d="" fill="#3A5CA7" transform="translate(0,0)"/>
<path d="" fill="#395AA4" transform="translate(0,0)"/>
<path d="" fill="#3759A4" transform="translate(0,0)"/>
<path d="" fill="#3C5DA7" transform="translate(0,0)"/>
<path d="" fill="#3555A2" transform="translate(0,0)"/>
<path d="" fill="#3A5BA7" transform="translate(0,0)"/>
<path d="" fill="#375AA7" transform="translate(0,0)"/>
<path d="" fill="#3858A4" transform="translate(0,0)"/>
<path d="" fill="#3A5DAA" transform="translate(0,0)"/>
<path d="" fill="#3557A3" transform="translate(0,0)"/>
<path d="" fill="#3658A3" transform="translate(0,0)"/>
<path d="" fill="#2F539E" transform="translate(0,0)"/>
<path d="" fill="#3759A7" transform="translate(0,0)"/>
<path d="" fill="#3457A1" transform="translate(0,0)"/>
<path d="" fill="#3459A6" transform="translate(0,0)"/>
<path d="" fill="#385CA8" transform="translate(0,0)"/>
<path d="" fill="#395AA5" transform="translate(0,0)"/>
<path d="" fill="#365AA5" transform="translate(0,0)"/>
<path d="" fill="#3856A3" transform="translate(0,0)"/>
<path d="" fill="#3558A6" transform="translate(0,0)"/>
<path d="" fill="#385AA4" transform="translate(0,0)"/>
<path d="" fill="#3658A4" transform="translate(0,0)"/>
<path d="" fill="#3A5CA5" transform="translate(0,0)"/>
<path d="" fill="#3859A3" transform="translate(0,0)"/>
<path d="" fill="#3B5CA7" transform="translate(0,0)"/>
<path d="" fill="#395BA7" transform="translate(0,0)"/>
<path d="" fill="#395AA4" transform="translate(0,0)"/>
<path d="" fill="#385AA4" transform="translate(0,0)"/>
<path d="" fill="#385AA6" transform="translate(0,0)"/>
<path d="" fill="#3258A3" transform="translate(0,0)"/>
<path d="" fill="#375CA8" transform="translate(0,0)"/>
<path d="" fill="#385CAA" transform="translate(0,0)"/>
<path d="" fill="#395EA8" transform="translate(0,0)"/>
<path d="" fill="#395EAA" transform="translate(0,0)"/>
<path d="" fill="#3A5BA5" transform="translate(0,0)"/>
<path d="" fill="#3C5FA9" transform="translate(0,0)"/>
<path d="" fill="#385BA7" transform="translate(0,0)"/>
<path d="" fill="#385DA8" transform="translate(0,0)"/>
<path d="" fill="#3E5EAB" transform="translate(0,0)"/>
<path d="" fill="#395AA8" transform="translate(0,0)"/>
<path d="" fill="#3A5BA6" transform="translate(0,0)"/>
<path d="" fill="#385CA7" transform="translate(0,0)"/>
<path d="" fill="#395BA7" transform="translate(0,0)"/>
<path d="" fill="#385CA7" transform="translate(0,0)"/>
<path d="" fill="#385AA6" transform="translate(0,0)"/>
<path d="" fill="#385CAA" transform="translate(0,0)"/>
<path d="" fill="#3A5FA9" transform="translate(0,0)"/>
<path d="" fill="#3B5DAA" transform="translate(0,0)"/>
<path d="" fill="#395BA8" transform="translate(0,0)"/>
<path d="" fill="#3A5CAC" transform="translate(0,0)"/>
<path d="" fill="#395CA7" transform="translate(0,0)"/>
<path d="" fill="#385CAA" transform="translate(0,0)"/>
<path d="" fill="#375AA4" transform="translate(0,0)"/>
<path d="" fill="#3A5DAA" transform="translate(0,0)"/>
<path d="" fill="#3C5DAB" transform="translate(0,0)"/>
<path d="" fill="#395DA9" transform="translate(0,0)"/>
<path d="" fill="#3D5DAA" transform="translate(0,0)"/>
<path d="" fill="#375DAA" transform="translate(0,0)"/>
<path d="" fill="#395BA5" transform="translate(0,0)"/>
<path d="" fill="#3B5EAB" transform="translate(0,0)"/>
<path d="" fill="#365BA7" transform="translate(0,0)"/>
<path d="" fill="#3B5FAB" transform="translate(0,0)"/>
<path d="" fill="#3E60AD" transform="translate(0,0)"/>
<path d="" fill="#3E60AA" transform="translate(0,0)"/>
<path d="" fill="#3A5DA7" transform="translate(0,0)"/>
<path d="" fill="#3D5EA8" transform="translate(0,0)"/>
<path d="" fill="#3A5EAB" transform="translate(0,0)"/>
<path d="" fill="#3A5DAA" transform="translate(0,0)"/>
<path d="" fill="#3C60AC" transform="translate(0,0)"/>
<path d="" fill="#3C5EAB" transform="translate(0,0)"/>
<path d="" fill="#3C5FA9" transform="translate(0,0)"/>
<path d="" fill="#395BA7" transform="translate(0,0)"/>
<path d="" fill="#3C5FAA" transform="translate(0,0)"/>
<path d="" fill="#3E62AD" transform="translate(0,0)"/>
<path d="" fill="#395CAD" transform="translate(0,0)"/>
<path d="" fill="#3C5FAB" transform="translate(0,0)"/>
<path d="" fill="#3C5FAD" transform="translate(0,0)"/>
<path d="" fill="#3C5FAB" transform="translate(0,0)"/>
<path d="" fill="#3B5DA8" transform="translate(0,0)"/>
<path d="" fill="#3A5CA7" transform="translate(0,0)"/>
<path d="" fill="#385CA7" transform="translate(0,0)"/>
<path d="" fill="#4162AD" transform="translate(0,0)"/>
<path d="" fill="#3C61AF" transform="translate(0,0)"/>
<path d="" fill="#3E60AD" transform="translate(0,0)"/>
<path d="" fill="#3C5EAB" transform="translate(0,0)"/>
<path d="" fill="#3D60AD" transform="translate(0,0)"/>
<path d="" fill="#3F63AD" transform="translate(0,0)"/>
<path d="" fill="#3C5EAA" transform="translate(0,0)"/>
<path d="" fill="#375BA6" transform="translate(0,0)"/>
<path d="" fill="#375AA7" transform="translate(0,0)"/>
<path d="" fill="#3C5CA6" transform="translate(0,0)"/>
<path d="" fill="#3E61AE" transform="translate(0,0)"/>
<path d="" fill="#3860AA" transform="translate(0,0)"/>
<path d="" fill="#335BA5" transform="translate(0,0)"/>
<path d="" fill="#3C5DA8" transform="translate(0,0)"/>
<path d="" fill="#3659A7" transform="translate(0,0)"/>
<path d="" fill="#3A60AB" transform="translate(0,0)"/>
<path d="" fill="#3D5FAE" transform="translate(0,0)"/>
<path d="" fill="#3A5DAC" transform="translate(0,0)"/>
<path d="" fill="#3C5FAB" transform="translate(0,0)"/>
<path d="" fill="#385CA9" transform="translate(0,0)"/>
<path d="" fill="#3E5FAB" transform="translate(0,0)"/>
<path d="" fill="#365DA9" transform="translate(0,0)"/>
<path d="" fill="#385BA7" transform="translate(0,0)"/>
<path d="" fill="#395EAB" transform="translate(0,0)"/>
<path d="" fill="#3A5CA7" transform="translate(0,0)"/>
<path d="" fill="#385EA9" transform="translate(0,0)"/>
<path d="" fill="#385BA8" transform="translate(0,0)"/>
<path d="" fill="#375DA7" transform="translate(0,0)"/>
<path d="" fill="#385BA7" transform="translate(0,0)"/>
<path d="" fill="#3D5EAA" transform="translate(0,0)"/>
<path d="" fill="#3F5FA8" transform="translate(0,0)"/>
<path d="" fill="#375AA6" transform="translate(0,0)"/>
<path d="" fill="#3C5FA8" transform="translate(0,0)"/>
<path d="" fill="#385BA8" transform="translate(0,0)"/>
<path d="" fill="#385DAA" transform="translate(0,0)"/>
<path d="" fill="#375FAA" transform="translate(0,0)"/>
<path d="" fill="#385BA9" transform="translate(0,0)"/>
<path d="" fill="#375BA8" transform="translate(0,0)"/>
<path d="" fill="#385DA9" transform="translate(0,0)"/>
<path d="" fill="#395BA7" transform="translate(0,0)"/>
<path d="" fill="#3A5BA7" transform="translate(0,0)"/>
<path d="" fill="#355BA4" transform="translate(0,0)"/>
<path d="" fill="#375BA5" transform="translate(0,0)"/>
<path d="" fill="#3759A6" transform="translate(0,0)"/>
<path d="" fill="#355CA8" transform="translate(0,0)"/>
<path d="" fill="#375AA6" transform="translate(0,0)"/>
<path d="" fill="#375CA5" transform="translate(0,0)"/>
<path d="" fill="#365CA6" transform="translate(0,0)"/>
<path d="" fill="#3A5DAA" transform="translate(0,0)"/>
<path d="" fill="#355BAA" transform="translate(0,0)"/>
<path d="" fill="#395CA6" transform="translate(0,0)"/>
<path d="" fill="#385BAA" transform="translate(0,0)"/>
<path d="" fill="#385CA8" transform="translate(0,0)"/>
<path d="" fill="#375CA8" transform="translate(0,0)"/>
<path d="" fill="#335AA4" transform="translate(0,0)"/>
<path d="" fill="#375AA8" transform="translate(0,0)"/>
<path d="" fill="#3158A2" transform="translate(0,0)"/>
<path d="" fill="#385BA7" transform="translate(0,0)"/>
<path d="" fill="#3958A3" transform="translate(0,0)"/>
<path d="" fill="#395DAA" transform="translate(0,0)"/>
<path d="" fill="#3459A7" transform="translate(0,0)"/>
<path d="" fill="#375BA7" transform="translate(0,0)"/>
<path d="" fill="#355AA6" transform="translate(0,0)"/>
<path d="" fill="#3B5EAA" transform="translate(0,0)"/>
<path d="" fill="#365CA8" transform="translate(0,0)"/>
<path d="" fill="#385AA7" transform="translate(0,0)"/>
<path d="" fill="#3B5EAA" transform="translate(0,0)"/>
<path d="" fill="#375AA8" transform="translate(0,0)"/>
<path d="" fill="#355AA6" transform="translate(0,0)"/>
<path d="" fill="#375BA6" transform="translate(0,0)"/>
<path d="" fill="#385CA7" transform="translate(0,0)"/>
<path d="" fill="#395DAA" transform="translate(0,0)"/>
<path d="" fill="#395CA8" transform="translate(0,0)"/>
<path d="" fill="#395DA7" transform="translate(0,0)"/>
<path d="" fill="#395DAA" transform="translate(0,0)"/>
<path d="" fill="#385DAA" transform="translate(0,0)"/>
<path d="" fill="#385BA8" transform="translate(0,0)"/>
<path d="" fill="#3658A2" transform="translate(0,0)"/>
<path d="" fill="#3A5EA9" transform="translate(0,0)"/>
<path d="" fill="#3C5FA9" transform="translate(0,0)"/>
<path d="" fill="#3A5EAA" transform="translate(0,0)"/>
<path d="" fill="#395BAA" transform="translate(0,0)"/>
<path d="" fill="#395AA7" transform="translate(0,0)"/>
<path d="" fill="#395DAA" transform="translate(0,0)"/>
<path d="" fill="#3A5EA9" transform="translate(0,0)"/>
<path d="" fill="#3B5CA8" transform="translate(0,0)"/>
<path d="" fill="#3A5DA8" transform="translate(0,0)"/>
<path d="" fill="#3B5EA9" transform="translate(0,0)"/>
<path d="" fill="#395CA9" transform="translate(0,0)"/>
<path d="" fill="#3C5EAA" transform="translate(0,0)"/>
<path d="" fill="#395DA9" transform="translate(0,0)"/>
<path d="" fill="#385EA7" transform="translate(0,0)"/>
<path d="" fill="#3C5EA9" transform="translate(0,0)"/>
<path d="" fill="#3A5CA6" transform="translate(0,0)"/>
<path d="" fill="#3D5BA4" transform="translate(0,0)"/>
<path d="" fill="#3B5BA9" transform="translate(0,0)"/>
<path d="" fill="#3D5EAB" transform="translate(0,0)"/>
</svg>
